<svg xmlns="http://www.w3.org/2000/svg" xmlns:xlink="http://www.w3.org/1999/xlink" width="1600" zoomAndPan="magnify" viewBox="0 0 1200 314.999992" height="420" preserveAspectRatio="xMidYMid meet" version="1.0"><defs><g/><clipPath id="8cf4fd83e9"><path d="M 31.5 72.792969 L 200.910156 72.792969 L 200.910156 242.207031 L 31.5 242.207031 Z M 31.5 72.792969 " clip-rule="nonzero"/></clipPath><clipPath id="41c8b2af71"><path d="M 116.207031 72.792969 C 69.425781 72.792969 31.5 110.71875 31.5 157.5 C 31.5 204.28125 69.425781 242.207031 116.207031 242.207031 C 162.988281 242.207031 200.910156 204.28125 200.910156 157.5 C 200.910156 110.71875 162.988281 72.792969 116.207031 72.792969 Z M 116.207031 72.792969 " clip-rule="nonzero"/></clipPath><clipPath id="e83159735a"><path d="M 0.5 0.792969 L 169.910156 0.792969 L 169.910156 170.207031 L 0.5 170.207031 Z M 0.5 0.792969 " clip-rule="nonzero"/></clipPath><clipPath id="1b4f3aa788"><path d="M 85.207031 0.792969 C 38.425781 0.792969 0.5 38.71875 0.5 85.5 C 0.5 132.28125 38.425781 170.207031 85.207031 170.207031 C 131.988281 170.207031 169.910156 132.28125 169.910156 85.5 C 169.910156 38.71875 131.988281 0.792969 85.207031 0.792969 Z M 85.207031 0.792969 " clip-rule="nonzero"/></clipPath><clipPath id="1834f7bda4"><rect x="0" width="170" y="0" height="171"/></clipPath><clipPath id="a4f716daed"><path d="M 27.371094 68.664062 L 205.042969 68.664062 L 205.042969 246.335938 L 27.371094 246.335938 Z M 27.371094 68.664062 " clip-rule="nonzero"/></clipPath><clipPath id="a5199cee4b"><path d="M 116.207031 68.664062 C 67.144531 68.664062 27.371094 108.4375 27.371094 157.5 C 27.371094 206.5625 67.144531 246.335938 116.207031 246.335938 C 165.269531 246.335938 205.042969 206.5625 205.042969 157.5 C 205.042969 108.4375 165.269531 68.664062 116.207031 68.664062 Z M 116.207031 68.664062 " clip-rule="nonzero"/></clipPath><clipPath id="a4138d8830"><path d="M 0.371094 0.664062 L 178.042969 0.664062 L 178.042969 178.335938 L 0.371094 178.335938 Z M 0.371094 0.664062 " clip-rule="nonzero"/></clipPath><clipPath id="589e9ae300"><path d="M 89.207031 0.664062 C 40.144531 0.664062 0.371094 40.4375 0.371094 89.5 C 0.371094 138.5625 40.144531 178.335938 89.207031 178.335938 C 138.269531 178.335938 178.042969 138.5625 178.042969 89.5 C 178.042969 40.4375 138.269531 0.664062 89.207031 0.664062 Z M 89.207031 0.664062 " clip-rule="nonzero"/></clipPath><clipPath id="f8310a1abc"><rect x="0" width="179" y="0" height="179"/></clipPath><clipPath id="75caccb1af"><path d="M 31.5 72.792969 L 200.910156 72.792969 L 200.910156 242.207031 L 31.5 242.207031 Z M 31.5 72.792969 " clip-rule="nonzero"/></clipPath><clipPath id="a9ee8d3865"><path d="M 116.207031 72.792969 C 69.425781 72.792969 31.5 110.71875 31.5 157.5 C 31.5 204.28125 69.425781 242.207031 116.207031 242.207031 C 162.988281 242.207031 200.910156 204.28125 200.910156 157.5 C 200.910156 110.71875 162.988281 72.792969 116.207031 72.792969 Z M 116.207031 72.792969 " clip-rule="nonzero"/></clipPath><clipPath id="480b590f18"><path d="M 0.5 0.792969 L 169.910156 0.792969 L 169.910156 170.207031 L 0.5 170.207031 Z M 0.5 0.792969 " clip-rule="nonzero"/></clipPath><clipPath id="ff2f4c1635"><path d="M 85.207031 0.792969 C 38.425781 0.792969 0.5 38.71875 0.5 85.5 C 0.5 132.28125 38.425781 170.207031 85.207031 170.207031 C 131.988281 170.207031 169.910156 132.28125 169.910156 85.5 C 169.910156 38.71875 131.988281 0.792969 85.207031 0.792969 Z M 85.207031 0.792969 " clip-rule="nonzero"/></clipPath><clipPath id="b174406684"><rect x="0" width="170" y="0" height="171"/></clipPath></defs><rect x="-120" width="1440" fill="#ffffff" y="-31.499999" height="377.99999" fill-opacity="1"/><rect x="-120" width="1440" fill="#1b3154" y="-31.499999" height="377.99999" fill-opacity="1"/><g clip-path="url(#8cf4fd83e9)"><g clip-path="url(#41c8b2af71)"><g transform="matrix(1, 0, 0, 1, 31, 72)"><g clip-path="url(#1834f7bda4)"><g clip-path="url(#e83159735a)"><g clip-path="url(#1b4f3aa788)"><path fill="#243f6a" d="M 0.5 0.792969 L 169.910156 0.792969 L 169.910156 170.207031 L 0.5 170.207031 Z M 0.5 0.792969 " fill-opacity="1" fill-rule="nonzero"/></g></g></g></g></g></g><g fill="#ffffff" fill-opacity="1"><g transform="translate(59.135651, 186.0706)"><g><path d="M 3.109375 -56.359375 C 4.328125 -56.304688 5.90625 -56.253906 7.84375 -56.203125 C 9.78125 -56.148438 11.703125 -56.125 13.609375 -56.125 C 16.160156 -56.125 18.585938 -56.148438 20.890625 -56.203125 C 23.203125 -56.253906 24.835938 -56.28125 25.796875 -56.28125 C 30.304688 -56.28125 34.0625 -55.695312 37.0625 -54.53125 C 40.0625 -53.363281 42.289062 -51.726562 43.75 -49.625 C 45.207031 -47.53125 45.9375 -45.132812 45.9375 -42.4375 C 45.9375 -40.789062 45.601562 -39.050781 44.9375 -37.21875 C 44.269531 -35.382812 43.113281 -33.6875 41.46875 -32.125 C 39.832031 -30.5625 37.601562 -29.273438 34.78125 -28.265625 C 31.96875 -27.253906 28.390625 -26.75 24.046875 -26.75 L 16.40625 -26.75 L 16.40625 -28.34375 L 23.25 -28.34375 C 26.800781 -28.34375 29.519531 -28.9375 31.40625 -30.125 C 33.289062 -31.320312 34.5625 -32.914062 35.21875 -34.90625 C 35.882812 -36.894531 36.21875 -39.113281 36.21875 -41.5625 C 36.21875 -45.75 35.316406 -48.992188 33.515625 -51.296875 C 31.710938 -53.609375 28.582031 -54.765625 24.125 -54.765625 C 21.84375 -54.765625 20.34375 -54.3125 19.625 -53.40625 C 18.90625 -52.507812 18.546875 -50.679688 18.546875 -47.921875 L 18.546875 -8.4375 C 18.546875 -6.53125 18.703125 -5.097656 19.015625 -4.140625 C 19.335938 -3.179688 19.953125 -2.539062 20.859375 -2.21875 C 21.765625 -1.90625 23.09375 -1.695312 24.84375 -1.59375 L 24.84375 0 C 23.5625 -0.101562 21.953125 -0.164062 20.015625 -0.1875 C 18.078125 -0.21875 16.101562 -0.234375 14.09375 -0.234375 C 11.863281 -0.234375 9.78125 -0.21875 7.84375 -0.1875 C 5.90625 -0.164062 4.328125 -0.101562 3.109375 0 L 3.109375 -1.59375 C 4.910156 -1.695312 6.257812 -1.90625 7.15625 -2.21875 C 8.0625 -2.539062 8.660156 -3.179688 8.953125 -4.140625 C 9.242188 -5.097656 9.390625 -6.53125 9.390625 -8.4375 L 9.390625 -47.921875 C 9.390625 -49.890625 9.242188 -51.335938 8.953125 -52.265625 C 8.660156 -53.191406 8.050781 -53.828125 7.125 -54.171875 C 6.195312 -54.515625 4.859375 -54.710938 3.109375 -54.765625 Z M 16.5625 -28.109375 C 19.269531 -27.992188 21.441406 -27.867188 23.078125 -27.734375 C 24.722656 -27.609375 26.101562 -27.488281 27.21875 -27.375 C 28.332031 -27.269531 29.367188 -27.140625 30.328125 -26.984375 C 34.304688 -26.453125 37.210938 -25.390625 39.046875 -23.796875 C 40.878906 -22.210938 42.140625 -19.773438 42.828125 -16.484375 L 44.8125 -8.359375 C 45.289062 -6.078125 45.804688 -4.457031 46.359375 -3.5 C 46.921875 -2.539062 47.757812 -2.0625 48.875 -2.0625 C 49.726562 -2.125 50.429688 -2.378906 50.984375 -2.828125 C 51.546875 -3.273438 52.144531 -3.898438 52.78125 -4.703125 L 53.890625 -3.828125 C 52.671875 -2.179688 51.394531 -0.945312 50.0625 -0.125 C 48.738281 0.695312 46.960938 1.109375 44.734375 1.109375 C 42.453125 1.109375 40.503906 0.515625 38.890625 -0.671875 C 37.273438 -1.867188 36.117188 -4.140625 35.421875 -7.484375 L 33.828125 -15.4375 C 33.359375 -17.726562 32.828125 -19.707031 32.234375 -21.375 C 31.648438 -23.050781 30.84375 -24.363281 29.8125 -25.3125 C 28.78125 -26.269531 27.28125 -26.75 25.3125 -26.75 L 16.71875 -26.75 Z M 16.5625 -28.109375 "/></g></g></g><g fill="#ffffff" fill-opacity="1"><g transform="translate(111.906358, 186.0706)"><g><path d="M 36.546875 0 L 36.546875 -1.59375 C 38.347656 -1.695312 39.695312 -1.90625 40.59375 -2.21875 C 41.5 -2.539062 42.097656 -3.179688 42.390625 -4.140625 C 42.679688 -5.097656 42.828125 -6.53125 42.828125 -8.4375 L 42.828125 -47.921875 C 42.828125 -49.890625 42.679688 -51.335938 42.390625 -52.265625 C 42.097656 -53.191406 41.488281 -53.828125 40.5625 -54.171875 C 39.632812 -54.515625 38.296875 -54.710938 36.546875 -54.765625 L 36.546875 -56.359375 C 37.867188 -56.304688 39.523438 -56.253906 41.515625 -56.203125 C 43.503906 -56.148438 45.484375 -56.125 47.453125 -56.125 C 49.679688 -56.125 51.75 -56.148438 53.65625 -56.203125 C 55.5625 -56.253906 57.101562 -56.304688 58.28125 -56.359375 L 58.28125 -54.765625 C 56.519531 -54.710938 55.1875 -54.515625 54.28125 -54.171875 C 53.382812 -53.828125 52.773438 -53.191406 52.453125 -52.265625 C 52.140625 -51.335938 51.984375 -49.890625 51.984375 -47.921875 L 51.984375 -8.4375 C 51.984375 -6.53125 52.140625 -5.097656 52.453125 -4.140625 C 52.773438 -3.179688 53.382812 -2.539062 54.28125 -2.21875 C 55.1875 -1.90625 56.519531 -1.695312 58.28125 -1.59375 L 58.28125 0 C 57.101562 -0.101562 55.5625 -0.164062 53.65625 -0.1875 C 51.75 -0.21875 49.679688 -0.234375 47.453125 -0.234375 C 45.484375 -0.234375 43.503906 -0.21875 41.515625 -0.1875 C 39.523438 -0.164062 37.867188 -0.101562 36.546875 0 Z M 3.109375 0 L 3.109375 -1.59375 C 4.910156 -1.695312 6.257812 -1.90625 7.15625 -2.21875 C 8.0625 -2.539062 8.660156 -3.179688 8.953125 -4.140625 C 9.242188 -5.097656 9.390625 -6.53125 9.390625 -8.4375 L 9.390625 -47.921875 C 9.390625 -49.890625 9.242188 -51.335938 8.953125 -52.265625 C 8.660156 -53.191406 8.050781 -53.828125 7.125 -54.171875 C 6.195312 -54.515625 4.859375 -54.710938 3.109375 -54.765625 L 3.109375 -56.359375 C 4.328125 -56.304688 5.90625 -56.253906 7.84375 -56.203125 C 9.78125 -56.148438 11.863281 -56.125 14.09375 -56.125 C 16.101562 -56.125 18.078125 -56.148438 20.015625 -56.203125 C 21.953125 -56.253906 23.5625 -56.304688 24.84375 -56.359375 L 24.84375 -54.765625 C 23.09375 -54.710938 21.765625 -54.515625 20.859375 -54.171875 C 19.953125 -53.828125 19.335938 -53.191406 19.015625 -52.265625 C 18.703125 -51.335938 18.546875 -49.890625 18.546875 -47.921875 L 18.546875 -8.4375 C 18.546875 -6.53125 18.703125 -5.097656 19.015625 -4.140625 C 19.335938 -3.179688 19.953125 -2.539062 20.859375 -2.21875 C 21.765625 -1.90625 23.09375 -1.695312 24.84375 -1.59375 L 24.84375 0 C 23.5625 -0.101562 21.953125 -0.164062 20.015625 -0.1875 C 18.078125 -0.21875 16.101562 -0.234375 14.09375 -0.234375 C 11.863281 -0.234375 9.78125 -0.21875 7.84375 -0.1875 C 5.90625 -0.164062 4.328125 -0.101562 3.109375 0 Z M 14.96875 -27.546875 L 14.96875 -29.140625 L 46.40625 -29.140625 L 46.40625 -27.546875 Z M 14.96875 -27.546875 "/></g></g></g><path stroke-linecap="butt" transform="matrix(0, 0.75, -0.75, 0, 245.101434, 72.79687)" fill="none" stroke-linejoin="miter" d="M 0.00000730935 1.999829 L 225.880231 1.999829 " stroke="#c56e4e" stroke-width="4" stroke-opacity="1" stroke-miterlimit="4"/><g fill="#ffffff" fill-opacity="1"><g transform="translate(286.424557, 186.069772)"><g><path d="M 3.109375 -56.359375 C 4.328125 -56.296875 5.90625 -56.238281 7.84375 -56.1875 C 9.78125 -56.132812 11.703125 -56.109375 13.609375 -56.109375 C 16.160156 -56.109375 18.585938 -56.132812 20.890625 -56.1875 C 23.203125 -56.238281 24.832031 -56.265625 25.78125 -56.265625 C 30.289062 -56.265625 34.046875 -55.679688 37.046875 -54.515625 C 40.046875 -53.347656 42.273438 -51.71875 43.734375 -49.625 C 45.191406 -47.53125 45.921875 -45.128906 45.921875 -42.421875 C 45.921875 -40.773438 45.585938 -39.035156 44.921875 -37.203125 C 44.265625 -35.378906 43.113281 -33.679688 41.46875 -32.109375 C 39.820312 -30.546875 37.59375 -29.257812 34.78125 -28.25 C 31.96875 -27.25 28.382812 -26.75 24.03125 -26.75 L 16.390625 -26.75 L 16.390625 -28.328125 L 23.234375 -28.328125 C 26.796875 -28.328125 29.515625 -28.925781 31.390625 -30.125 C 33.273438 -31.320312 34.550781 -32.914062 35.21875 -34.90625 C 35.882812 -36.894531 36.21875 -39.109375 36.21875 -41.546875 C 36.21875 -45.734375 35.3125 -48.984375 33.5 -51.296875 C 31.695312 -53.609375 28.566406 -54.765625 24.109375 -54.765625 C 21.828125 -54.765625 20.328125 -54.3125 19.609375 -53.40625 C 18.898438 -52.5 18.546875 -50.671875 18.546875 -47.921875 L 18.546875 -8.4375 C 18.546875 -6.53125 18.703125 -5.097656 19.015625 -4.140625 C 19.335938 -3.179688 19.945312 -2.539062 20.84375 -2.21875 C 21.75 -1.90625 23.078125 -1.695312 24.828125 -1.59375 L 24.828125 0 C 23.554688 -0.101562 21.953125 -0.164062 20.015625 -0.1875 C 18.078125 -0.21875 16.101562 -0.234375 14.09375 -0.234375 C 11.863281 -0.234375 9.78125 -0.21875 7.84375 -0.1875 C 5.90625 -0.164062 4.328125 -0.101562 3.109375 0 L 3.109375 -1.59375 C 4.910156 -1.695312 6.257812 -1.90625 7.15625 -2.21875 C 8.0625 -2.539062 8.660156 -3.179688 8.953125 -4.140625 C 9.242188 -5.097656 9.390625 -6.53125 9.390625 -8.4375 L 9.390625 -47.921875 C 9.390625 -49.878906 9.242188 -51.320312 8.953125 -52.25 C 8.660156 -53.175781 8.050781 -53.8125 7.125 -54.15625 C 6.195312 -54.507812 4.859375 -54.710938 3.109375 -54.765625 Z M 16.5625 -28.09375 C 19.257812 -27.988281 21.429688 -27.867188 23.078125 -27.734375 C 24.722656 -27.609375 26.101562 -27.488281 27.21875 -27.375 C 28.332031 -27.269531 29.367188 -27.140625 30.328125 -26.984375 C 34.304688 -26.453125 37.207031 -25.390625 39.03125 -23.796875 C 40.863281 -22.203125 42.128906 -19.757812 42.828125 -16.46875 L 44.8125 -8.359375 C 45.289062 -6.078125 45.804688 -4.457031 46.359375 -3.5 C 46.921875 -2.539062 47.757812 -2.0625 48.875 -2.0625 C 49.71875 -2.125 50.414062 -2.378906 50.96875 -2.828125 C 51.53125 -3.273438 52.128906 -3.898438 52.765625 -4.703125 L 53.890625 -3.828125 C 52.660156 -2.179688 51.382812 -0.945312 50.0625 -0.125 C 48.738281 0.695312 46.960938 1.109375 44.734375 1.109375 C 42.453125 1.109375 40.5 0.515625 38.875 -0.671875 C 37.257812 -1.867188 36.109375 -4.140625 35.421875 -7.484375 L 33.828125 -15.4375 C 33.347656 -17.71875 32.816406 -19.691406 32.234375 -21.359375 C 31.648438 -23.035156 30.835938 -24.351562 29.796875 -25.3125 C 28.765625 -26.269531 27.269531 -26.75 25.3125 -26.75 L 16.71875 -26.75 Z M 16.5625 -28.09375 "/></g></g></g><g fill="#ffffff" fill-opacity="1"><g transform="translate(339.187447, 186.069772)"><g><path d="M 36.53125 0 L 36.53125 -1.59375 C 38.332031 -1.695312 39.6875 -1.90625 40.59375 -2.21875 C 41.5 -2.539062 42.097656 -3.179688 42.390625 -4.140625 C 42.679688 -5.097656 42.828125 -6.53125 42.828125 -8.4375 L 42.828125 -47.921875 C 42.828125 -49.878906 42.679688 -51.320312 42.390625 -52.25 C 42.097656 -53.175781 41.484375 -53.8125 40.546875 -54.15625 C 39.617188 -54.507812 38.28125 -54.710938 36.53125 -54.765625 L 36.53125 -56.359375 C 37.851562 -56.296875 39.507812 -56.238281 41.5 -56.1875 C 43.5 -56.132812 45.476562 -56.109375 47.4375 -56.109375 C 49.664062 -56.109375 51.734375 -56.132812 53.640625 -56.1875 C 55.554688 -56.238281 57.097656 -56.296875 58.265625 -56.359375 L 58.265625 -54.765625 C 56.515625 -54.710938 55.1875 -54.507812 54.28125 -54.15625 C 53.382812 -53.8125 52.773438 -53.175781 52.453125 -52.25 C 52.128906 -51.320312 51.96875 -49.878906 51.96875 -47.921875 L 51.96875 -8.4375 C 51.96875 -6.53125 52.128906 -5.097656 52.453125 -4.140625 C 52.773438 -3.179688 53.382812 -2.539062 54.28125 -2.21875 C 55.1875 -1.90625 56.515625 -1.695312 58.265625 -1.59375 L 58.265625 0 C 57.097656 -0.101562 55.554688 -0.164062 53.640625 -0.1875 C 51.734375 -0.21875 49.664062 -0.234375 47.4375 -0.234375 C 45.476562 -0.234375 43.5 -0.21875 41.5 -0.1875 C 39.507812 -0.164062 37.851562 -0.101562 36.53125 0 Z M 3.109375 0 L 3.109375 -1.59375 C 4.910156 -1.695312 6.257812 -1.90625 7.15625 -2.21875 C 8.0625 -2.539062 8.660156 -3.179688 8.953125 -4.140625 C 9.242188 -5.097656 9.390625 -6.53125 9.390625 -8.4375 L 9.390625 -47.921875 C 9.390625 -49.878906 9.242188 -51.320312 8.953125 -52.25 C 8.660156 -53.175781 8.050781 -53.8125 7.125 -54.15625 C 6.195312 -54.507812 4.859375 -54.710938 3.109375 -54.765625 L 3.109375 -56.359375 C 4.328125 -56.296875 5.90625 -56.238281 7.84375 -56.1875 C 9.78125 -56.132812 11.863281 -56.109375 14.09375 -56.109375 C 16.101562 -56.109375 18.078125 -56.132812 20.015625 -56.1875 C 21.953125 -56.238281 23.554688 -56.296875 24.828125 -56.359375 L 24.828125 -54.765625 C 23.078125 -54.710938 21.75 -54.507812 20.84375 -54.15625 C 19.945312 -53.8125 19.335938 -53.175781 19.015625 -52.25 C 18.703125 -51.320312 18.546875 -49.878906 18.546875 -47.921875 L 18.546875 -8.4375 C 18.546875 -6.53125 18.703125 -5.097656 19.015625 -4.140625 C 19.335938 -3.179688 19.945312 -2.539062 20.84375 -2.21875 C 21.75 -1.90625 23.078125 -1.695312 24.828125 -1.59375 L 24.828125 0 C 23.554688 -0.101562 21.953125 -0.164062 20.015625 -0.1875 C 18.078125 -0.21875 16.101562 -0.234375 14.09375 -0.234375 C 11.863281 -0.234375 9.78125 -0.21875 7.84375 -0.1875 C 5.90625 -0.164062 4.328125 -0.101562 3.109375 0 Z M 14.96875 -27.546875 L 14.96875 -29.125 L 46.40625 -29.125 L 46.40625 -27.546875 Z M 14.96875 -27.546875 "/></g></g></g><g fill="#ffffff" fill-opacity="1"><g transform="translate(400.545192, 186.069772)"><g/></g></g><g fill="#ffffff" fill-opacity="1"><g transform="translate(419.963206, 186.069772)"><g><path d="M 30.25 -57.46875 C 33.75 -57.46875 36.625 -56.945312 38.875 -55.90625 C 41.132812 -54.875 43.140625 -53.671875 44.890625 -52.296875 C 45.953125 -51.492188 46.757812 -51.398438 47.3125 -52.015625 C 47.875 -52.628906 48.257812 -54.078125 48.46875 -56.359375 L 50.296875 -56.359375 C 50.191406 -54.335938 50.113281 -51.90625 50.0625 -49.0625 C 50.007812 -46.226562 49.984375 -42.453125 49.984375 -37.734375 L 48.15625 -37.734375 C 47.78125 -40.066406 47.421875 -41.972656 47.078125 -43.453125 C 46.734375 -44.941406 46.28125 -46.21875 45.71875 -47.28125 C 45.164062 -48.34375 44.410156 -49.375 43.453125 -50.375 C 41.921875 -52.289062 40.039062 -53.671875 37.8125 -54.515625 C 35.582031 -55.367188 33.21875 -55.796875 30.71875 -55.796875 C 28.007812 -55.796875 25.617188 -55.117188 23.546875 -53.765625 C 21.484375 -52.410156 19.75 -50.484375 18.34375 -47.984375 C 16.9375 -45.492188 15.863281 -42.550781 15.125 -39.15625 C 14.382812 -35.757812 14.015625 -32.046875 14.015625 -28.015625 C 14.015625 -23.878906 14.410156 -20.125 15.203125 -16.75 C 15.992188 -13.382812 17.144531 -10.492188 18.65625 -8.078125 C 20.175781 -5.660156 22.007812 -3.800781 24.15625 -2.5 C 26.300781 -1.207031 28.703125 -0.5625 31.359375 -0.5625 C 33.535156 -0.5625 35.789062 -1 38.125 -1.875 C 40.457031 -2.75 42.316406 -4.085938 43.703125 -5.890625 C 45.179688 -7.484375 46.195312 -9.273438 46.75 -11.265625 C 47.3125 -13.253906 47.78125 -15.972656 48.15625 -19.421875 L 49.984375 -19.421875 C 49.984375 -14.535156 50.007812 -10.59375 50.0625 -7.59375 C 50.113281 -4.601562 50.191406 -2.070312 50.296875 0 L 48.46875 0 C 48.257812 -2.28125 47.898438 -3.710938 47.390625 -4.296875 C 46.890625 -4.878906 46.054688 -4.800781 44.890625 -4.0625 C 42.929688 -2.675781 40.847656 -1.46875 38.640625 -0.4375 C 36.441406 0.59375 33.617188 1.109375 30.171875 1.109375 C 24.910156 1.109375 20.316406 -0.03125 16.390625 -2.3125 C 12.460938 -4.59375 9.410156 -7.878906 7.234375 -12.171875 C 5.066406 -16.472656 3.984375 -21.648438 3.984375 -27.703125 C 3.984375 -33.640625 5.109375 -38.835938 7.359375 -43.296875 C 9.617188 -47.753906 12.710938 -51.226562 16.640625 -53.71875 C 20.566406 -56.21875 25.101562 -57.46875 30.25 -57.46875 Z M 30.25 -57.46875 "/></g></g></g><g fill="#ffffff" fill-opacity="1"><g transform="translate(475.193133, 186.069772)"><g><path d="M 15.921875 -62.328125 L 15.921875 -33.34375 C 17.242188 -36.632812 19.113281 -38.929688 21.53125 -40.234375 C 23.945312 -41.535156 26.503906 -42.1875 29.203125 -42.1875 C 31.328125 -42.1875 33.066406 -41.90625 34.421875 -41.34375 C 35.773438 -40.789062 36.90625 -40.035156 37.8125 -39.078125 C 38.757812 -38.066406 39.445312 -36.765625 39.875 -35.171875 C 40.300781 -33.585938 40.515625 -31.441406 40.515625 -28.734375 L 40.515625 -7.40625 C 40.515625 -5.175781 40.953125 -3.660156 41.828125 -2.859375 C 42.703125 -2.066406 44.175781 -1.671875 46.25 -1.671875 L 46.25 0 C 45.289062 -0.0507812 43.851562 -0.113281 41.9375 -0.1875 C 40.03125 -0.269531 38.175781 -0.3125 36.375 -0.3125 C 34.519531 -0.3125 32.703125 -0.269531 30.921875 -0.1875 C 29.140625 -0.113281 27.828125 -0.0507812 26.984375 0 L 26.984375 -1.671875 C 28.785156 -1.671875 30.054688 -2.066406 30.796875 -2.859375 C 31.546875 -3.660156 31.921875 -5.175781 31.921875 -7.40625 L 31.921875 -30.96875 C 31.921875 -32.5 31.785156 -33.890625 31.515625 -35.140625 C 31.253906 -36.390625 30.6875 -37.394531 29.8125 -38.15625 C 28.9375 -38.925781 27.648438 -39.3125 25.953125 -39.3125 C 24.035156 -39.3125 22.320312 -38.769531 20.8125 -37.6875 C 19.300781 -36.601562 18.109375 -35.101562 17.234375 -33.1875 C 16.359375 -31.28125 15.921875 -29.101562 15.921875 -26.65625 L 15.921875 -7.40625 C 15.921875 -5.175781 16.289062 -3.660156 17.03125 -2.859375 C 17.769531 -2.066406 19.046875 -1.671875 20.859375 -1.671875 L 20.859375 0 C 19.953125 -0.0507812 18.632812 -0.113281 16.90625 -0.1875 C 15.1875 -0.269531 13.425781 -0.3125 11.625 -0.3125 C 9.757812 -0.3125 7.859375 -0.269531 5.921875 -0.1875 C 3.992188 -0.113281 2.550781 -0.0507812 1.59375 0 L 1.59375 -1.671875 C 3.664062 -1.671875 5.140625 -2.066406 6.015625 -2.859375 C 6.890625 -3.660156 7.328125 -5.175781 7.328125 -7.40625 L 7.328125 -52.765625 C 7.328125 -55.160156 6.914062 -56.925781 6.09375 -58.0625 C 5.269531 -59.207031 3.769531 -59.78125 1.59375 -59.78125 L 1.59375 -61.453125 C 3.289062 -61.285156 4.9375 -61.203125 6.53125 -61.203125 C 8.28125 -61.203125 9.945312 -61.296875 11.53125 -61.484375 C 13.125 -61.671875 14.585938 -61.953125 15.921875 -62.328125 Z M 15.921875 -62.328125 "/></g></g></g><g fill="#ffffff" fill-opacity="1"><g transform="translate(522.544444, 186.069772)"><g><path d="M 13.375 0.5625 C 11.144531 0.5625 9.234375 0.140625 7.640625 -0.703125 C 6.046875 -1.554688 4.847656 -2.726562 4.046875 -4.21875 C 3.253906 -5.707031 2.859375 -7.40625 2.859375 -9.3125 C 2.859375 -11.644531 3.390625 -13.539062 4.453125 -15 C 5.515625 -16.457031 6.878906 -17.632812 8.546875 -18.53125 C 10.222656 -19.4375 12.003906 -20.195312 13.890625 -20.8125 C 15.773438 -21.425781 17.550781 -22.007812 19.21875 -22.5625 C 20.894531 -23.125 22.273438 -23.773438 23.359375 -24.515625 C 24.453125 -25.253906 25 -26.234375 25 -27.453125 L 25 -32.875 C 25 -34.78125 24.691406 -36.300781 24.078125 -37.4375 C 23.460938 -38.582031 22.640625 -39.394531 21.609375 -39.875 C 20.578125 -40.351562 19.34375 -40.59375 17.90625 -40.59375 C 16.6875 -40.59375 15.382812 -40.421875 14 -40.078125 C 12.625 -39.734375 11.539062 -39.054688 10.75 -38.046875 C 11.914062 -37.722656 12.878906 -37.097656 13.640625 -36.171875 C 14.410156 -35.242188 14.796875 -34.09375 14.796875 -32.71875 C 14.796875 -31.226562 14.304688 -30.054688 13.328125 -29.203125 C 12.347656 -28.359375 11.113281 -27.9375 9.625 -27.9375 C 7.976562 -27.9375 6.757812 -28.453125 5.96875 -29.484375 C 5.175781 -30.523438 4.78125 -31.734375 4.78125 -33.109375 C 4.78125 -34.546875 5.132812 -35.710938 5.84375 -36.609375 C 6.5625 -37.515625 7.503906 -38.363281 8.671875 -39.15625 C 9.953125 -40.007812 11.585938 -40.726562 13.578125 -41.3125 C 15.566406 -41.894531 17.78125 -42.1875 20.21875 -42.1875 C 22.5 -42.1875 24.472656 -41.929688 26.140625 -41.421875 C 27.816406 -40.921875 29.210938 -40.113281 30.328125 -39 C 31.648438 -37.78125 32.523438 -36.253906 32.953125 -34.421875 C 33.378906 -32.585938 33.59375 -30.375 33.59375 -27.78125 L 33.59375 -5.8125 C 33.59375 -4.488281 33.765625 -3.546875 34.109375 -2.984375 C 34.453125 -2.429688 35.019531 -2.15625 35.8125 -2.15625 C 36.34375 -2.15625 36.859375 -2.285156 37.359375 -2.546875 C 37.867188 -2.804688 38.46875 -3.203125 39.15625 -3.734375 L 39.953125 -2.390625 C 38.835938 -1.484375 37.707031 -0.765625 36.5625 -0.234375 C 35.425781 0.296875 33.984375 0.5625 32.234375 0.5625 C 30.535156 0.5625 29.15625 0.296875 28.09375 -0.234375 C 27.03125 -0.765625 26.25 -1.535156 25.75 -2.546875 C 25.25 -3.554688 25 -4.800781 25 -6.28125 C 23.613281 -4.050781 21.960938 -2.351562 20.046875 -1.1875 C 18.140625 -0.0195312 15.914062 0.5625 13.375 0.5625 Z M 17.1875 -3.265625 C 18.675781 -3.265625 20.070312 -3.6875 21.375 -4.53125 C 22.675781 -5.382812 23.882812 -6.660156 25 -8.359375 L 25 -24.203125 C 24.40625 -23.347656 23.550781 -22.613281 22.4375 -22 C 21.332031 -21.394531 20.140625 -20.773438 18.859375 -20.140625 C 17.585938 -19.503906 16.378906 -18.773438 15.234375 -17.953125 C 14.097656 -17.128906 13.15625 -16.078125 12.40625 -14.796875 C 11.664062 -13.523438 11.296875 -11.910156 11.296875 -9.953125 C 11.296875 -7.878906 11.828125 -6.242188 12.890625 -5.046875 C 13.953125 -3.859375 15.382812 -3.265625 17.1875 -3.265625 Z M 17.1875 -3.265625 "/></g></g></g><g fill="#ffffff" fill-opacity="1"><g transform="translate(562.733368, 186.069772)"><g><path d="M 27.78125 -42.1875 C 29.320312 -42.1875 30.632812 -41.867188 31.71875 -41.234375 C 32.800781 -40.597656 33.617188 -39.785156 34.171875 -38.796875 C 34.734375 -37.816406 35.015625 -36.71875 35.015625 -35.5 C 35.015625 -33.957031 34.550781 -32.640625 33.625 -31.546875 C 32.695312 -30.460938 31.460938 -29.921875 29.921875 -29.921875 C 28.597656 -29.921875 27.472656 -30.316406 26.546875 -31.109375 C 25.617188 -31.910156 25.15625 -33.003906 25.15625 -34.390625 C 25.15625 -35.554688 25.457031 -36.550781 26.0625 -37.375 C 26.675781 -38.195312 27.378906 -38.84375 28.171875 -39.3125 C 27.640625 -39.738281 27.003906 -39.925781 26.265625 -39.875 C 24.828125 -39.820312 23.5 -39.359375 22.28125 -38.484375 C 21.0625 -37.609375 20.023438 -36.492188 19.171875 -35.140625 C 18.328125 -33.785156 17.664062 -32.335938 17.1875 -30.796875 C 16.707031 -29.265625 16.46875 -27.832031 16.46875 -26.5 L 16.46875 -8.203125 C 16.46875 -5.597656 17.1875 -3.859375 18.625 -2.984375 C 20.0625 -2.109375 22.050781 -1.671875 24.59375 -1.671875 L 24.59375 0 C 23.375 -0.0507812 21.632812 -0.113281 19.375 -0.1875 C 17.125 -0.269531 14.75 -0.3125 12.25 -0.3125 C 10.34375 -0.3125 8.429688 -0.269531 6.515625 -0.1875 C 4.609375 -0.113281 3.15625 -0.0507812 2.15625 0 L 2.15625 -1.671875 C 4.21875 -1.671875 5.6875 -2.066406 6.5625 -2.859375 C 7.4375 -3.660156 7.875 -5.175781 7.875 -7.40625 L 7.875 -32.390625 C 7.875 -34.773438 7.472656 -36.539062 6.671875 -37.6875 C 5.878906 -38.832031 4.375 -39.40625 2.15625 -39.40625 L 2.15625 -41.078125 C 3.851562 -40.910156 5.492188 -40.828125 7.078125 -40.828125 C 8.890625 -40.828125 10.578125 -40.921875 12.140625 -41.109375 C 13.703125 -41.296875 15.144531 -41.578125 16.46875 -41.953125 L 16.46875 -32.796875 C 17.113281 -34.328125 17.960938 -35.8125 19.015625 -37.25 C 20.078125 -38.6875 21.351562 -39.867188 22.84375 -40.796875 C 24.332031 -41.722656 25.976562 -42.1875 27.78125 -42.1875 Z M 27.78125 -42.1875 "/></g></g></g><g fill="#ffffff" fill-opacity="1"><g transform="translate(598.704458, 186.069772)"><g><path d="M 16.078125 -54.203125 L 16.078125 -40.984375 L 27.0625 -40.984375 L 27.0625 -39.40625 L 16.078125 -39.40625 L 16.078125 -8.125 C 16.078125 -5.945312 16.472656 -4.40625 17.265625 -3.5 C 18.066406 -2.601562 19.207031 -2.15625 20.6875 -2.15625 C 22.070312 -2.15625 23.304688 -2.707031 24.390625 -3.8125 C 25.484375 -4.925781 26.425781 -6.8125 27.21875 -9.46875 L 28.734375 -8.921875 C 28.097656 -6.109375 26.96875 -3.734375 25.34375 -1.796875 C 23.726562 0.140625 21.359375 1.109375 18.234375 1.109375 C 16.421875 1.109375 14.90625 0.882812 13.6875 0.4375 C 12.46875 -0.0078125 11.40625 -0.660156 10.5 -1.515625 C 9.332031 -2.734375 8.535156 -4.191406 8.109375 -5.890625 C 7.691406 -7.585938 7.484375 -9.84375 7.484375 -12.65625 L 7.484375 -39.40625 L 0.15625 -39.40625 L 0.15625 -40.984375 L 7.484375 -40.984375 L 7.484375 -52.609375 C 9.128906 -52.660156 10.664062 -52.804688 12.09375 -53.046875 C 13.53125 -53.285156 14.859375 -53.671875 16.078125 -54.203125 Z M 16.078125 -54.203125 "/></g></g></g><g fill="#ffffff" fill-opacity="1"><g transform="translate(626.717304, 186.069772)"><g><path d="M 21.890625 -42.1875 C 26.554688 -42.1875 30.21875 -40.78125 32.875 -37.96875 C 35.53125 -35.15625 36.859375 -30.695312 36.859375 -24.59375 L 9.390625 -24.59375 L 9.234375 -26.109375 L 28.421875 -26.109375 C 28.472656 -28.703125 28.257812 -31.097656 27.78125 -33.296875 C 27.300781 -35.503906 26.554688 -37.269531 25.546875 -38.59375 C 24.535156 -39.925781 23.207031 -40.59375 21.5625 -40.59375 C 19.28125 -40.59375 17.304688 -39.382812 15.640625 -36.96875 C 13.972656 -34.550781 12.953125 -30.691406 12.578125 -25.390625 L 12.8125 -25 C 12.757812 -24.25 12.707031 -23.4375 12.65625 -22.5625 C 12.601562 -21.6875 12.578125 -20.828125 12.578125 -19.984375 C 12.578125 -16.316406 13.132812 -13.234375 14.25 -10.734375 C 15.363281 -8.242188 16.820312 -6.375 18.625 -5.125 C 20.425781 -3.882812 22.253906 -3.265625 24.109375 -3.265625 C 25.546875 -3.265625 26.941406 -3.488281 28.296875 -3.9375 C 29.648438 -4.382812 30.9375 -5.148438 32.15625 -6.234375 C 33.375 -7.328125 34.460938 -8.832031 35.421875 -10.75 L 37.015625 -10.109375 C 36.378906 -8.304688 35.394531 -6.53125 34.0625 -4.78125 C 32.738281 -3.03125 31.039062 -1.609375 28.96875 -0.515625 C 26.90625 0.566406 24.492188 1.109375 21.734375 1.109375 C 18.015625 1.109375 14.773438 0.273438 12.015625 -1.390625 C 9.253906 -3.066406 7.128906 -5.46875 5.640625 -8.59375 C 4.160156 -11.726562 3.421875 -15.441406 3.421875 -19.734375 C 3.421875 -24.460938 4.1875 -28.5 5.71875 -31.84375 C 7.257812 -35.1875 9.421875 -37.742188 12.203125 -39.515625 C 14.992188 -41.296875 18.222656 -42.1875 21.890625 -42.1875 Z M 21.890625 -42.1875 "/></g></g></g><g fill="#ffffff" fill-opacity="1"><g transform="translate(666.747041, 186.069772)"><g><path d="M 27.78125 -42.1875 C 29.320312 -42.1875 30.632812 -41.867188 31.71875 -41.234375 C 32.800781 -40.597656 33.617188 -39.785156 34.171875 -38.796875 C 34.734375 -37.816406 35.015625 -36.71875 35.015625 -35.5 C 35.015625 -33.957031 34.550781 -32.640625 33.625 -31.546875 C 32.695312 -30.460938 31.460938 -29.921875 29.921875 -29.921875 C 28.597656 -29.921875 27.472656 -30.316406 26.546875 -31.109375 C 25.617188 -31.910156 25.15625 -33.003906 25.15625 -34.390625 C 25.15625 -35.554688 25.457031 -36.550781 26.0625 -37.375 C 26.675781 -38.195312 27.378906 -38.84375 28.171875 -39.3125 C 27.640625 -39.738281 27.003906 -39.925781 26.265625 -39.875 C 24.828125 -39.820312 23.5 -39.359375 22.28125 -38.484375 C 21.0625 -37.609375 20.023438 -36.492188 19.171875 -35.140625 C 18.328125 -33.785156 17.664062 -32.335938 17.1875 -30.796875 C 16.707031 -29.265625 16.46875 -27.832031 16.46875 -26.5 L 16.46875 -8.203125 C 16.46875 -5.597656 17.1875 -3.859375 18.625 -2.984375 C 20.0625 -2.109375 22.050781 -1.671875 24.59375 -1.671875 L 24.59375 0 C 23.375 -0.0507812 21.632812 -0.113281 19.375 -0.1875 C 17.125 -0.269531 14.75 -0.3125 12.25 -0.3125 C 10.34375 -0.3125 8.429688 -0.269531 6.515625 -0.1875 C 4.609375 -0.113281 3.15625 -0.0507812 2.15625 0 L 2.15625 -1.671875 C 4.21875 -1.671875 5.6875 -2.066406 6.5625 -2.859375 C 7.4375 -3.660156 7.875 -5.175781 7.875 -7.40625 L 7.875 -32.390625 C 7.875 -34.773438 7.472656 -36.539062 6.671875 -37.6875 C 5.878906 -38.832031 4.375 -39.40625 2.15625 -39.40625 L 2.15625 -41.078125 C 3.851562 -40.910156 5.492188 -40.828125 7.078125 -40.828125 C 8.890625 -40.828125 10.578125 -40.921875 12.140625 -41.109375 C 13.703125 -41.296875 15.144531 -41.578125 16.46875 -41.953125 L 16.46875 -32.796875 C 17.113281 -34.328125 17.960938 -35.8125 19.015625 -37.25 C 20.078125 -38.6875 21.351562 -39.867188 22.84375 -40.796875 C 24.332031 -41.722656 25.976562 -42.1875 27.78125 -42.1875 Z M 27.78125 -42.1875 "/></g></g></g><g fill="#ffffff" fill-opacity="1"><g transform="translate(701.285491, 186.069772)"><g><path d="M 21.890625 -42.1875 C 26.554688 -42.1875 30.21875 -40.78125 32.875 -37.96875 C 35.53125 -35.15625 36.859375 -30.695312 36.859375 -24.59375 L 9.390625 -24.59375 L 9.234375 -26.109375 L 28.421875 -26.109375 C 28.472656 -28.703125 28.257812 -31.097656 27.78125 -33.296875 C 27.300781 -35.503906 26.554688 -37.269531 25.546875 -38.59375 C 24.535156 -39.925781 23.207031 -40.59375 21.5625 -40.59375 C 19.28125 -40.59375 17.304688 -39.382812 15.640625 -36.96875 C 13.972656 -34.550781 12.953125 -30.691406 12.578125 -25.390625 L 12.8125 -25 C 12.757812 -24.25 12.707031 -23.4375 12.65625 -22.5625 C 12.601562 -21.6875 12.578125 -20.828125 12.578125 -19.984375 C 12.578125 -16.316406 13.132812 -13.234375 14.25 -10.734375 C 15.363281 -8.242188 16.820312 -6.375 18.625 -5.125 C 20.425781 -3.882812 22.253906 -3.265625 24.109375 -3.265625 C 25.546875 -3.265625 26.941406 -3.488281 28.296875 -3.9375 C 29.648438 -4.382812 30.9375 -5.148438 32.15625 -6.234375 C 33.375 -7.328125 34.460938 -8.832031 35.421875 -10.75 L 37.015625 -10.109375 C 36.378906 -8.304688 35.394531 -6.53125 34.0625 -4.78125 C 32.738281 -3.03125 31.039062 -1.609375 28.96875 -0.515625 C 26.90625 0.566406 24.492188 1.109375 21.734375 1.109375 C 18.015625 1.109375 14.773438 0.273438 12.015625 -1.390625 C 9.253906 -3.066406 7.128906 -5.46875 5.640625 -8.59375 C 4.160156 -11.726562 3.421875 -15.441406 3.421875 -19.734375 C 3.421875 -24.460938 4.1875 -28.5 5.71875 -31.84375 C 7.257812 -35.1875 9.421875 -37.742188 12.203125 -39.515625 C 14.992188 -41.296875 18.222656 -42.1875 21.890625 -42.1875 Z M 21.890625 -42.1875 "/></g></g></g><g fill="#ffffff" fill-opacity="1"><g transform="translate(741.474438, 186.069772)"><g><path d="M 39.40625 -62.40625 L 39.40625 -8.671875 C 39.40625 -6.285156 39.8125 -4.519531 40.625 -3.375 C 41.445312 -2.238281 42.945312 -1.671875 45.125 -1.671875 L 45.125 0 C 43.476562 -0.15625 41.832031 -0.234375 40.1875 -0.234375 C 38.382812 -0.234375 36.703125 -0.15625 35.140625 0 C 33.578125 0.15625 32.128906 0.445312 30.796875 0.875 L 30.796875 -52.84375 C 30.796875 -55.238281 30.382812 -57.003906 29.5625 -58.140625 C 28.738281 -59.285156 27.242188 -59.859375 25.078125 -59.859375 L 25.078125 -61.53125 C 26.773438 -61.363281 28.414062 -61.28125 30 -61.28125 C 31.757812 -61.28125 33.429688 -61.375 35.015625 -61.5625 C 36.609375 -61.75 38.070312 -62.03125 39.40625 -62.40625 Z M 21.484375 -42.1875 C 23.828125 -42.1875 25.960938 -41.679688 27.890625 -40.671875 C 29.828125 -39.660156 31.195312 -37.960938 32 -35.578125 L 31.046875 -34.703125 C 30.296875 -36.609375 29.203125 -38 27.765625 -38.875 C 26.335938 -39.75 24.722656 -40.1875 22.921875 -40.1875 C 19.898438 -40.1875 17.429688 -38.582031 15.515625 -35.375 C 13.609375 -32.164062 12.679688 -27.21875 12.734375 -20.53125 C 12.734375 -16.125 13.101562 -12.53125 13.84375 -9.75 C 14.59375 -6.96875 15.695312 -4.910156 17.15625 -3.578125 C 18.613281 -2.253906 20.378906 -1.59375 22.453125 -1.59375 C 24.515625 -1.59375 26.378906 -2.46875 28.046875 -4.21875 C 29.722656 -5.96875 30.722656 -8.488281 31.046875 -11.78125 L 31.765625 -10.109375 C 31.234375 -6.503906 29.957031 -3.734375 27.9375 -1.796875 C 25.914062 0.140625 23.207031 1.109375 19.8125 1.109375 C 16.582031 1.109375 13.734375 0.328125 11.265625 -1.234375 C 8.796875 -2.796875 6.894531 -5.179688 5.5625 -8.390625 C 4.238281 -11.609375 3.578125 -15.65625 3.578125 -20.53125 C 3.578125 -25.363281 4.382812 -29.382812 6 -32.59375 C 7.625 -35.800781 9.789062 -38.203125 12.5 -39.796875 C 15.207031 -41.390625 18.203125 -42.1875 21.484375 -42.1875 Z M 21.484375 -42.1875 "/></g></g></g><g fill="#ffffff" fill-opacity="1"><g transform="translate(788.18908, 186.069772)"><g/></g></g><g fill="#ffffff" fill-opacity="1"><g transform="translate(807.607094, 186.069772)"><g><path d="M 21.09375 -57.3125 C 23.90625 -57.3125 26.050781 -56.988281 27.53125 -56.34375 C 29.019531 -55.707031 30.320312 -55.019531 31.4375 -54.28125 C 32.070312 -53.90625 32.585938 -53.625 32.984375 -53.4375 C 33.390625 -53.257812 33.773438 -53.171875 34.140625 -53.171875 C 34.671875 -53.171875 35.054688 -53.460938 35.296875 -54.046875 C 35.535156 -54.628906 35.734375 -55.503906 35.890625 -56.671875 L 37.734375 -56.671875 C 37.671875 -55.710938 37.597656 -54.582031 37.515625 -53.28125 C 37.441406 -51.988281 37.390625 -50.28125 37.359375 -48.15625 C 37.335938 -46.03125 37.328125 -43.242188 37.328125 -39.796875 L 35.5 -39.796875 C 35.34375 -42.398438 34.769531 -44.921875 33.78125 -47.359375 C 32.800781 -49.796875 31.367188 -51.785156 29.484375 -53.328125 C 27.597656 -54.867188 25.195312 -55.640625 22.28125 -55.640625 C 19.582031 -55.640625 17.34375 -54.828125 15.5625 -53.203125 C 13.78125 -51.585938 12.890625 -49.453125 12.890625 -46.796875 C 12.890625 -44.460938 13.472656 -42.515625 14.640625 -40.953125 C 15.804688 -39.390625 17.410156 -37.929688 19.453125 -36.578125 C 21.503906 -35.222656 23.828125 -33.722656 26.421875 -32.078125 C 29.078125 -30.378906 31.460938 -28.691406 33.578125 -27.015625 C 35.703125 -25.347656 37.375 -23.503906 38.59375 -21.484375 C 39.820312 -19.472656 40.4375 -17.035156 40.4375 -14.171875 C 40.4375 -10.722656 39.625 -7.867188 38 -5.609375 C 36.382812 -3.359375 34.222656 -1.675781 31.515625 -0.5625 C 28.804688 0.550781 25.835938 1.109375 22.609375 1.109375 C 19.628906 1.109375 17.265625 0.789062 15.515625 0.15625 C 13.765625 -0.476562 12.28125 -1.140625 11.0625 -1.828125 C 9.894531 -2.566406 8.992188 -2.9375 8.359375 -2.9375 C 7.828125 -2.9375 7.441406 -2.644531 7.203125 -2.0625 C 6.960938 -1.476562 6.765625 -0.601562 6.609375 0.5625 L 4.78125 0.5625 C 4.882812 -0.601562 4.945312 -1.96875 4.96875 -3.53125 C 5 -5.101562 5.023438 -7.160156 5.046875 -9.703125 C 5.078125 -12.253906 5.09375 -15.46875 5.09375 -19.34375 L 6.921875 -19.34375 C 7.140625 -16.050781 7.738281 -12.972656 8.71875 -10.109375 C 9.695312 -7.242188 11.207031 -4.945312 13.25 -3.21875 C 15.289062 -1.5 18.007812 -0.640625 21.40625 -0.640625 C 23.207031 -0.640625 24.878906 -0.984375 26.421875 -1.671875 C 27.960938 -2.359375 29.207031 -3.441406 30.15625 -4.921875 C 31.113281 -6.410156 31.59375 -8.328125 31.59375 -10.671875 C 31.59375 -12.835938 31.078125 -14.742188 30.046875 -16.390625 C 29.015625 -18.035156 27.582031 -19.5625 25.75 -20.96875 C 23.914062 -22.375 21.78125 -23.820312 19.34375 -25.3125 C 16.84375 -26.90625 14.503906 -28.492188 12.328125 -30.078125 C 10.160156 -31.671875 8.425781 -33.53125 7.125 -35.65625 C 5.820312 -37.78125 5.171875 -40.300781 5.171875 -43.21875 C 5.171875 -46.457031 5.925781 -49.109375 7.4375 -51.171875 C 8.945312 -53.242188 10.910156 -54.785156 13.328125 -55.796875 C 15.742188 -56.804688 18.332031 -57.3125 21.09375 -57.3125 Z M 21.09375 -57.3125 "/></g></g></g><g fill="#ffffff" fill-opacity="1"><g transform="translate(851.775105, 186.069772)"><g><path d="M 39.484375 -41.953125 L 39.484375 -8.59375 C 39.484375 -6.207031 39.894531 -4.441406 40.71875 -3.296875 C 41.539062 -2.160156 43.035156 -1.59375 45.203125 -1.59375 L 45.203125 0.078125 C 43.554688 -0.078125 41.914062 -0.15625 40.28125 -0.15625 C 38.519531 -0.15625 36.84375 -0.078125 35.25 0.078125 C 33.664062 0.234375 32.207031 0.523438 30.875 0.953125 L 30.875 -7.71875 C 29.550781 -4.53125 27.707031 -2.257812 25.34375 -0.90625 C 22.988281 0.4375 20.507812 1.109375 17.90625 1.109375 C 15.945312 1.109375 14.273438 0.828125 12.890625 0.265625 C 11.515625 -0.285156 10.375 -1.007812 9.46875 -1.90625 C 8.507812 -2.96875 7.84375 -4.332031 7.46875 -6 C 7.101562 -7.675781 6.921875 -9.789062 6.921875 -12.34375 L 6.921875 -32.390625 C 6.921875 -34.773438 6.519531 -36.539062 5.71875 -37.6875 C 4.925781 -38.832031 3.414062 -39.40625 1.1875 -39.40625 L 1.1875 -41.078125 C 2.882812 -40.910156 4.53125 -40.828125 6.125 -40.828125 C 7.875 -40.828125 9.546875 -40.921875 11.140625 -41.109375 C 12.734375 -41.296875 14.191406 -41.578125 15.515625 -41.953125 L 15.515625 -10.109375 C 15.515625 -8.566406 15.617188 -7.160156 15.828125 -5.890625 C 16.046875 -4.617188 16.550781 -3.609375 17.34375 -2.859375 C 18.144531 -2.117188 19.421875 -1.75 21.171875 -1.75 C 23.023438 -1.75 24.679688 -2.304688 26.140625 -3.421875 C 27.597656 -4.535156 28.75 -6.046875 29.59375 -7.953125 C 30.445312 -9.867188 30.875 -12.019531 30.875 -14.40625 L 30.875 -32.390625 C 30.875 -34.773438 30.476562 -36.539062 29.6875 -37.6875 C 28.894531 -38.832031 27.382812 -39.40625 25.15625 -39.40625 L 25.15625 -41.078125 C 26.851562 -40.910156 28.5 -40.828125 30.09375 -40.828125 C 31.84375 -40.828125 33.507812 -40.921875 35.09375 -41.109375 C 36.6875 -41.296875 38.148438 -41.578125 39.484375 -41.953125 Z M 39.484375 -41.953125 "/></g></g></g><g fill="#ffffff" fill-opacity="1"><g transform="translate(898.648957, 186.069772)"><g><path d="M 27.78125 -42.1875 C 29.320312 -42.1875 30.632812 -41.867188 31.71875 -41.234375 C 32.800781 -40.597656 33.617188 -39.785156 34.171875 -38.796875 C 34.734375 -37.816406 35.015625 -36.71875 35.015625 -35.5 C 35.015625 -33.957031 34.550781 -32.640625 33.625 -31.546875 C 32.695312 -30.460938 31.460938 -29.921875 29.921875 -29.921875 C 28.597656 -29.921875 27.472656 -30.316406 26.546875 -31.109375 C 25.617188 -31.910156 25.15625 -33.003906 25.15625 -34.390625 C 25.15625 -35.554688 25.457031 -36.550781 26.0625 -37.375 C 26.675781 -38.195312 27.378906 -38.84375 28.171875 -39.3125 C 27.640625 -39.738281 27.003906 -39.925781 26.265625 -39.875 C 24.828125 -39.820312 23.5 -39.359375 22.28125 -38.484375 C 21.0625 -37.609375 20.023438 -36.492188 19.171875 -35.140625 C 18.328125 -33.785156 17.664062 -32.335938 17.1875 -30.796875 C 16.707031 -29.265625 16.46875 -27.832031 16.46875 -26.5 L 16.46875 -8.203125 C 16.46875 -5.597656 17.1875 -3.859375 18.625 -2.984375 C 20.0625 -2.109375 22.050781 -1.671875 24.59375 -1.671875 L 24.59375 0 C 23.375 -0.0507812 21.632812 -0.113281 19.375 -0.1875 C 17.125 -0.269531 14.75 -0.3125 12.25 -0.3125 C 10.34375 -0.3125 8.429688 -0.269531 6.515625 -0.1875 C 4.609375 -0.113281 3.15625 -0.0507812 2.15625 0 L 2.15625 -1.671875 C 4.21875 -1.671875 5.6875 -2.066406 6.5625 -2.859375 C 7.4375 -3.660156 7.875 -5.175781 7.875 -7.40625 L 7.875 -32.390625 C 7.875 -34.773438 7.472656 -36.539062 6.671875 -37.6875 C 5.878906 -38.832031 4.375 -39.40625 2.15625 -39.40625 L 2.15625 -41.078125 C 3.851562 -40.910156 5.492188 -40.828125 7.078125 -40.828125 C 8.890625 -40.828125 10.578125 -40.921875 12.140625 -41.109375 C 13.703125 -41.296875 15.144531 -41.578125 16.46875 -41.953125 L 16.46875 -32.796875 C 17.113281 -34.328125 17.960938 -35.8125 19.015625 -37.25 C 20.078125 -38.6875 21.351562 -39.867188 22.84375 -40.796875 C 24.332031 -41.722656 25.976562 -42.1875 27.78125 -42.1875 Z M 27.78125 -42.1875 "/></g></g></g><g fill="#ffffff" fill-opacity="1"><g transform="translate(934.620025, 186.069772)"><g><path d="M 39.234375 -41.078125 L 39.234375 -39.484375 C 38.234375 -39.316406 37.289062 -38.796875 36.40625 -37.921875 C 35.53125 -37.046875 34.722656 -35.546875 33.984375 -33.421875 L 21.40625 0.3125 C 20.988281 0.3125 20.550781 0.3125 20.09375 0.3125 C 19.644531 0.3125 19.207031 0.3125 18.78125 0.3125 L 4.296875 -34.9375 C 3.453125 -37.007812 2.617188 -38.269531 1.796875 -38.71875 C 0.972656 -39.175781 0.269531 -39.40625 -0.3125 -39.40625 L -0.3125 -41.078125 C 0.957031 -40.960938 2.269531 -40.863281 3.625 -40.78125 C 4.976562 -40.707031 6.476562 -40.671875 8.125 -40.671875 C 9.769531 -40.671875 11.503906 -40.707031 13.328125 -40.78125 C 15.160156 -40.863281 16.875 -40.960938 18.46875 -41.078125 L 18.46875 -39.40625 C 17.195312 -39.40625 16.066406 -39.320312 15.078125 -39.15625 C 14.097656 -39 13.460938 -38.535156 13.171875 -37.765625 C 12.878906 -36.992188 13.050781 -35.679688 13.6875 -33.828125 L 23.484375 -9.15625 L 22.84375 -8.515625 L 31.046875 -30.25 C 31.835938 -32.363281 32.15625 -34.070312 32 -35.375 C 31.84375 -36.675781 31.285156 -37.65625 30.328125 -38.3125 C 29.367188 -38.976562 27.988281 -39.367188 26.1875 -39.484375 L 26.1875 -41.078125 C 27.09375 -41.015625 27.925781 -40.96875 28.6875 -40.9375 C 29.457031 -40.914062 30.203125 -40.890625 30.921875 -40.859375 C 31.640625 -40.835938 32.394531 -40.828125 33.1875 -40.828125 C 34.351562 -40.828125 35.453125 -40.851562 36.484375 -40.90625 C 37.523438 -40.957031 38.441406 -41.015625 39.234375 -41.078125 Z M 39.234375 -41.078125 "/></g></g></g><g fill="#ffffff" fill-opacity="1"><g transform="translate(973.137631, 186.069772)"><g><path d="M 21.890625 -42.1875 C 26.554688 -42.1875 30.21875 -40.78125 32.875 -37.96875 C 35.53125 -35.15625 36.859375 -30.695312 36.859375 -24.59375 L 9.390625 -24.59375 L 9.234375 -26.109375 L 28.421875 -26.109375 C 28.472656 -28.703125 28.257812 -31.097656 27.78125 -33.296875 C 27.300781 -35.503906 26.554688 -37.269531 25.546875 -38.59375 C 24.535156 -39.925781 23.207031 -40.59375 21.5625 -40.59375 C 19.28125 -40.59375 17.304688 -39.382812 15.640625 -36.96875 C 13.972656 -34.550781 12.953125 -30.691406 12.578125 -25.390625 L 12.8125 -25 C 12.757812 -24.25 12.707031 -23.4375 12.65625 -22.5625 C 12.601562 -21.6875 12.578125 -20.828125 12.578125 -19.984375 C 12.578125 -16.316406 13.132812 -13.234375 14.25 -10.734375 C 15.363281 -8.242188 16.820312 -6.375 18.625 -5.125 C 20.425781 -3.882812 22.253906 -3.265625 24.109375 -3.265625 C 25.546875 -3.265625 26.941406 -3.488281 28.296875 -3.9375 C 29.648438 -4.382812 30.9375 -5.148438 32.15625 -6.234375 C 33.375 -7.328125 34.460938 -8.832031 35.421875 -10.75 L 37.015625 -10.109375 C 36.378906 -8.304688 35.394531 -6.53125 34.0625 -4.78125 C 32.738281 -3.03125 31.039062 -1.609375 28.96875 -0.515625 C 26.90625 0.566406 24.492188 1.109375 21.734375 1.109375 C 18.015625 1.109375 14.773438 0.273438 12.015625 -1.390625 C 9.253906 -3.066406 7.128906 -5.46875 5.640625 -8.59375 C 4.160156 -11.726562 3.421875 -15.441406 3.421875 -19.734375 C 3.421875 -24.460938 4.1875 -28.5 5.71875 -31.84375 C 7.257812 -35.1875 9.421875 -37.742188 12.203125 -39.515625 C 14.992188 -41.296875 18.222656 -42.1875 21.890625 -42.1875 Z M 21.890625 -42.1875 "/></g></g></g><g fill="#ffffff" fill-opacity="1"><g transform="translate(1012.451059, 186.069772)"><g><path d="M 39.796875 -41.078125 L 39.796875 -39.484375 C 38.785156 -39.316406 37.851562 -38.796875 37 -37.921875 C 36.15625 -37.046875 35.335938 -35.546875 34.546875 -33.421875 L 22.125 -0.15625 L 20.21875 1.75 L 4.703125 -34.9375 C 3.691406 -37.007812 2.71875 -38.269531 1.78125 -38.71875 C 0.851562 -39.175781 0.0703125 -39.40625 -0.5625 -39.40625 L -0.5625 -41.078125 C 0.769531 -40.910156 2.175781 -40.785156 3.65625 -40.703125 C 5.144531 -40.628906 6.6875 -40.59375 8.28125 -40.59375 C 10.082031 -40.59375 11.894531 -40.644531 13.71875 -40.75 C 15.550781 -40.851562 17.265625 -40.960938 18.859375 -41.078125 L 18.859375 -39.40625 C 17.585938 -39.40625 16.460938 -39.3125 15.484375 -39.125 C 14.503906 -38.9375 13.867188 -38.429688 13.578125 -37.609375 C 13.285156 -36.785156 13.535156 -35.390625 14.328125 -33.421875 L 24.203125 -9.15625 L 23.640625 -8.921875 L 31.671875 -30.25 C 32.472656 -32.363281 32.789062 -34.070312 32.625 -35.375 C 32.46875 -36.675781 31.910156 -37.65625 30.953125 -38.3125 C 30.003906 -38.976562 28.601562 -39.367188 26.75 -39.484375 L 26.75 -41.078125 C 27.644531 -41.015625 28.476562 -40.96875 29.25 -40.9375 C 30.019531 -40.914062 30.773438 -40.890625 31.515625 -40.859375 C 32.265625 -40.835938 33.007812 -40.828125 33.75 -40.828125 C 34.914062 -40.828125 36.015625 -40.851562 37.046875 -40.90625 C 38.085938 -40.957031 39.003906 -41.015625 39.796875 -41.078125 Z M 22.125 -0.15625 L 19.265625 7.328125 C 18.734375 8.648438 18.1875 9.757812 17.625 10.65625 C 17.070312 11.5625 16.476562 12.304688 15.84375 12.890625 C 15.039062 13.640625 14.054688 14.171875 12.890625 14.484375 C 11.722656 14.804688 10.554688 14.96875 9.390625 14.96875 C 8.273438 14.96875 7.226562 14.765625 6.25 14.359375 C 5.269531 13.960938 4.457031 13.363281 3.8125 12.5625 C 3.175781 11.769531 2.859375 10.789062 2.859375 9.625 C 2.859375 8.25 3.3125 7.132812 4.21875 6.28125 C 5.125 5.4375 6.316406 5.015625 7.796875 5.015625 C 9.128906 5.015625 10.242188 5.367188 11.140625 6.078125 C 12.046875 6.796875 12.5 7.847656 12.5 9.234375 C 12.5 10.191406 12.242188 11.015625 11.734375 11.703125 C 11.234375 12.390625 10.585938 12.921875 9.796875 13.296875 C 9.953125 13.347656 10.109375 13.375 10.265625 13.375 C 10.421875 13.375 10.554688 13.375 10.671875 13.375 C 12.148438 13.375 13.472656 12.878906 14.640625 11.890625 C 15.804688 10.910156 16.789062 9.332031 17.59375 7.15625 L 20.453125 -0.484375 Z M 22.125 -0.15625 "/></g></g></g><g fill="#ffffff" fill-opacity="1"><g transform="translate(1052.082862, 186.069772)"><g><path d="M 22.046875 -42.1875 C 25.597656 -42.1875 28.753906 -41.441406 31.515625 -39.953125 C 34.273438 -38.472656 36.476562 -36.140625 38.125 -32.953125 C 39.769531 -29.765625 40.59375 -25.597656 40.59375 -20.453125 C 40.59375 -15.304688 39.769531 -11.15625 38.125 -8 C 36.476562 -4.84375 34.273438 -2.535156 31.515625 -1.078125 C 28.753906 0.378906 25.597656 1.109375 22.046875 1.109375 C 18.546875 1.109375 15.390625 0.378906 12.578125 -1.078125 C 9.765625 -2.535156 7.546875 -4.84375 5.921875 -8 C 4.304688 -11.15625 3.5 -15.304688 3.5 -20.453125 C 3.5 -25.597656 4.304688 -29.765625 5.921875 -32.953125 C 7.546875 -36.140625 9.765625 -38.472656 12.578125 -39.953125 C 15.390625 -41.441406 18.546875 -42.1875 22.046875 -42.1875 Z M 22.046875 -40.59375 C 19.285156 -40.59375 17.03125 -39.015625 15.28125 -35.859375 C 13.53125 -32.703125 12.65625 -27.566406 12.65625 -20.453125 C 12.65625 -13.347656 13.53125 -8.242188 15.28125 -5.140625 C 17.03125 -2.035156 19.285156 -0.484375 22.046875 -0.484375 C 24.753906 -0.484375 26.992188 -2.035156 28.765625 -5.140625 C 30.546875 -8.242188 31.4375 -13.347656 31.4375 -20.453125 C 31.4375 -27.566406 30.546875 -32.703125 28.765625 -35.859375 C 26.992188 -39.015625 24.753906 -40.59375 22.046875 -40.59375 Z M 22.046875 -40.59375 "/></g></g></g><g fill="#ffffff" fill-opacity="1"><g transform="translate(1096.171268, 186.069772)"><g><path d="M 27.78125 -42.1875 C 29.320312 -42.1875 30.632812 -41.867188 31.71875 -41.234375 C 32.800781 -40.597656 33.617188 -39.785156 34.171875 -38.796875 C 34.734375 -37.816406 35.015625 -36.71875 35.015625 -35.5 C 35.015625 -33.957031 34.550781 -32.640625 33.625 -31.546875 C 32.695312 -30.460938 31.460938 -29.921875 29.921875 -29.921875 C 28.597656 -29.921875 27.472656 -30.316406 26.546875 -31.109375 C 25.617188 -31.910156 25.15625 -33.003906 25.15625 -34.390625 C 25.15625 -35.554688 25.457031 -36.550781 26.0625 -37.375 C 26.675781 -38.195312 27.378906 -38.84375 28.171875 -39.3125 C 27.640625 -39.738281 27.003906 -39.925781 26.265625 -39.875 C 24.828125 -39.820312 23.5 -39.359375 22.28125 -38.484375 C 21.0625 -37.609375 20.023438 -36.492188 19.171875 -35.140625 C 18.328125 -33.785156 17.664062 -32.335938 17.1875 -30.796875 C 16.707031 -29.265625 16.46875 -27.832031 16.46875 -26.5 L 16.46875 -8.203125 C 16.46875 -5.597656 17.1875 -3.859375 18.625 -2.984375 C 20.0625 -2.109375 22.050781 -1.671875 24.59375 -1.671875 L 24.59375 0 C 23.375 -0.0507812 21.632812 -0.113281 19.375 -0.1875 C 17.125 -0.269531 14.75 -0.3125 12.25 -0.3125 C 10.34375 -0.3125 8.429688 -0.269531 6.515625 -0.1875 C 4.609375 -0.113281 3.15625 -0.0507812 2.15625 0 L 2.15625 -1.671875 C 4.21875 -1.671875 5.6875 -2.066406 6.5625 -2.859375 C 7.4375 -3.660156 7.875 -5.175781 7.875 -7.40625 L 7.875 -32.390625 C 7.875 -34.773438 7.472656 -36.539062 6.671875 -37.6875 C 5.878906 -38.832031 4.375 -39.40625 2.15625 -39.40625 L 2.15625 -41.078125 C 3.851562 -40.910156 5.492188 -40.828125 7.078125 -40.828125 C 8.890625 -40.828125 10.578125 -40.921875 12.140625 -41.109375 C 13.703125 -41.296875 15.144531 -41.578125 16.46875 -41.953125 L 16.46875 -32.796875 C 17.113281 -34.328125 17.960938 -35.8125 19.015625 -37.25 C 20.078125 -38.6875 21.351562 -39.867188 22.84375 -40.796875 C 24.332031 -41.722656 25.976562 -42.1875 27.78125 -42.1875 Z M 27.78125 -42.1875 "/></g></g></g><g fill="#ffffff" fill-opacity="1"><g transform="translate(1132.142336, 186.069772)"><g><path d="M 16.953125 -42.1875 C 19.078125 -42.1875 20.921875 -41.851562 22.484375 -41.1875 C 24.046875 -40.519531 25.175781 -39.925781 25.875 -39.40625 C 27.625 -38.019531 28.707031 -38.921875 29.125 -42.109375 L 30.875 -42.109375 C 30.769531 -40.617188 30.691406 -38.828125 30.640625 -36.734375 C 30.585938 -34.640625 30.5625 -31.867188 30.5625 -28.421875 L 28.8125 -28.421875 C 28.488281 -30.378906 27.941406 -32.285156 27.171875 -34.140625 C 26.410156 -36.003906 25.300781 -37.546875 23.84375 -38.765625 C 22.382812 -39.984375 20.484375 -40.59375 18.140625 -40.59375 C 16.390625 -40.59375 14.929688 -40.097656 13.765625 -39.109375 C 12.597656 -38.128906 12.015625 -36.6875 12.015625 -34.78125 C 12.015625 -33.1875 12.492188 -31.804688 13.453125 -30.640625 C 14.410156 -29.472656 15.644531 -28.382812 17.15625 -27.375 C 18.664062 -26.375 20.296875 -25.285156 22.046875 -24.109375 C 24.015625 -22.785156 25.78125 -21.472656 27.34375 -20.171875 C 28.90625 -18.878906 30.148438 -17.4375 31.078125 -15.84375 C 32.003906 -14.25 32.46875 -12.390625 32.46875 -10.265625 C 32.46875 -7.828125 31.816406 -5.757812 30.515625 -4.0625 C 29.222656 -2.363281 27.515625 -1.078125 25.390625 -0.203125 C 23.265625 0.671875 20.929688 1.109375 18.390625 1.109375 C 17.109375 1.109375 15.910156 0.988281 14.796875 0.75 C 13.691406 0.507812 12.660156 0.207031 11.703125 -0.15625 C 11.117188 -0.476562 10.546875 -0.8125 9.984375 -1.15625 C 9.429688 -1.5 8.890625 -1.832031 8.359375 -2.15625 C 7.828125 -2.519531 7.347656 -2.460938 6.921875 -1.984375 C 6.492188 -1.515625 6.175781 -0.664062 5.96875 0.5625 L 4.21875 0.5625 C 4.320312 -1.132812 4.398438 -3.203125 4.453125 -5.640625 C 4.503906 -8.085938 4.53125 -11.328125 4.53125 -15.359375 L 6.28125 -15.359375 C 6.65625 -12.441406 7.210938 -9.867188 7.953125 -7.640625 C 8.703125 -5.410156 9.804688 -3.671875 11.265625 -2.421875 C 12.722656 -1.179688 14.722656 -0.5625 17.265625 -0.5625 C 18.273438 -0.5625 19.285156 -0.785156 20.296875 -1.234375 C 21.304688 -1.679688 22.140625 -2.410156 22.796875 -3.421875 C 23.460938 -4.429688 23.796875 -5.785156 23.796875 -7.484375 C 23.796875 -9.816406 22.984375 -11.738281 21.359375 -13.25 C 19.742188 -14.757812 17.664062 -16.363281 15.125 -18.0625 C 13.320312 -19.34375 11.609375 -20.601562 9.984375 -21.84375 C 8.367188 -23.09375 7.054688 -24.5 6.046875 -26.0625 C 5.035156 -27.632812 4.53125 -29.503906 4.53125 -31.671875 C 4.53125 -34.066406 5.097656 -36.03125 6.234375 -37.5625 C 7.378906 -39.101562 8.90625 -40.257812 10.8125 -41.03125 C 12.726562 -41.800781 14.773438 -42.1875 16.953125 -42.1875 Z M 16.953125 -42.1875 "/></g></g></g><g clip-path="url(#a4f716daed)"><g clip-path="url(#a5199cee4b)"><g transform="matrix(1, 0, 0, 1, 27, 68)"><g clip-path="url(#f8310a1abc)"><g clip-path="url(#a4138d8830)"><g clip-path="url(#589e9ae300)"><path fill="#c56e4e" d="M 0.371094 0.664062 L 178.042969 0.664062 L 178.042969 178.335938 L 0.371094 178.335938 Z M 0.371094 0.664062 " fill-opacity="1" fill-rule="nonzero"/></g></g></g></g></g></g><g clip-path="url(#75caccb1af)"><g clip-path="url(#a9ee8d3865)"><g transform="matrix(1, 0, 0, 1, 31, 72)"><g clip-path="url(#b174406684)"><g clip-path="url(#480b590f18)"><g clip-path="url(#ff2f4c1635)"><path fill="#1b3154" d="M 0.5 0.792969 L 169.910156 0.792969 L 169.910156 170.207031 L 0.5 170.207031 Z M 0.5 0.792969 " fill-opacity="1" fill-rule="nonzero"/></g></g></g></g></g></g><g fill="#ffffff" fill-opacity="1"><g transform="translate(59.135651, 186.0706)"><g><path d="M 3.109375 -56.359375 C 4.328125 -56.304688 5.90625 -56.253906 7.84375 -56.203125 C 9.78125 -56.148438 11.703125 -56.125 13.609375 -56.125 C 16.160156 -56.125 18.585938 -56.148438 20.890625 -56.203125 C 23.203125 -56.253906 24.835938 -56.28125 25.796875 -56.28125 C 30.304688 -56.28125 34.0625 -55.695312 37.0625 -54.53125 C 40.0625 -53.363281 42.289062 -51.726562 43.75 -49.625 C 45.207031 -47.53125 45.9375 -45.132812 45.9375 -42.4375 C 45.9375 -40.789062 45.601562 -39.050781 44.9375 -37.21875 C 44.269531 -35.382812 43.113281 -33.6875 41.46875 -32.125 C 39.832031 -30.5625 37.601562 -29.273438 34.78125 -28.265625 C 31.96875 -27.253906 28.390625 -26.75 24.046875 -26.75 L 16.40625 -26.75 L 16.40625 -28.34375 L 23.25 -28.34375 C 26.800781 -28.34375 29.519531 -28.9375 31.40625 -30.125 C 33.289062 -31.320312 34.5625 -32.914062 35.21875 -34.90625 C 35.882812 -36.894531 36.21875 -39.113281 36.21875 -41.5625 C 36.21875 -45.75 35.316406 -48.992188 33.515625 -51.296875 C 31.710938 -53.609375 28.582031 -54.765625 24.125 -54.765625 C 21.84375 -54.765625 20.34375 -54.3125 19.625 -53.40625 C 18.90625 -52.507812 18.546875 -50.679688 18.546875 -47.921875 L 18.546875 -8.4375 C 18.546875 -6.53125 18.703125 -5.097656 19.015625 -4.140625 C 19.335938 -3.179688 19.953125 -2.539062 20.859375 -2.21875 C 21.765625 -1.90625 23.09375 -1.695312 24.84375 -1.59375 L 24.84375 0 C 23.5625 -0.101562 21.953125 -0.164062 20.015625 -0.1875 C 18.078125 -0.21875 16.101562 -0.234375 14.09375 -0.234375 C 11.863281 -0.234375 9.78125 -0.21875 7.84375 -0.1875 C 5.90625 -0.164062 4.328125 -0.101562 3.109375 0 L 3.109375 -1.59375 C 4.910156 -1.695312 6.257812 -1.90625 7.15625 -2.21875 C 8.0625 -2.539062 8.660156 -3.179688 8.953125 -4.140625 C 9.242188 -5.097656 9.390625 -6.53125 9.390625 -8.4375 L 9.390625 -47.921875 C 9.390625 -49.890625 9.242188 -51.335938 8.953125 -52.265625 C 8.660156 -53.191406 8.050781 -53.828125 7.125 -54.171875 C 6.195312 -54.515625 4.859375 -54.710938 3.109375 -54.765625 Z M 16.5625 -28.109375 C 19.269531 -27.992188 21.441406 -27.867188 23.078125 -27.734375 C 24.722656 -27.609375 26.101562 -27.488281 27.21875 -27.375 C 28.332031 -27.269531 29.367188 -27.140625 30.328125 -26.984375 C 34.304688 -26.453125 37.210938 -25.390625 39.046875 -23.796875 C 40.878906 -22.210938 42.140625 -19.773438 42.828125 -16.484375 L 44.8125 -8.359375 C 45.289062 -6.078125 45.804688 -4.457031 46.359375 -3.5 C 46.921875 -2.539062 47.757812 -2.0625 48.875 -2.0625 C 49.726562 -2.125 50.429688 -2.378906 50.984375 -2.828125 C 51.546875 -3.273438 52.144531 -3.898438 52.78125 -4.703125 L 53.890625 -3.828125 C 52.671875 -2.179688 51.394531 -0.945312 50.0625 -0.125 C 48.738281 0.695312 46.960938 1.109375 44.734375 1.109375 C 42.453125 1.109375 40.503906 0.515625 38.890625 -0.671875 C 37.273438 -1.867188 36.117188 -4.140625 35.421875 -7.484375 L 33.828125 -15.4375 C 33.359375 -17.726562 32.828125 -19.707031 32.234375 -21.375 C 31.648438 -23.050781 30.84375 -24.363281 29.8125 -25.3125 C 28.78125 -26.269531 27.28125 -26.75 25.3125 -26.75 L 16.71875 -26.75 Z M 16.5625 -28.109375 "/></g></g></g><g fill="#ffffff" fill-opacity="1"><g transform="translate(111.906358, 186.0706)"><g><path d="M 36.546875 0 L 36.546875 -1.59375 C 38.347656 -1.695312 39.695312 -1.90625 40.59375 -2.21875 C 41.5 -2.539062 42.097656 -3.179688 42.390625 -4.140625 C 42.679688 -5.097656 42.828125 -6.53125 42.828125 -8.4375 L 42.828125 -47.921875 C 42.828125 -49.890625 42.679688 -51.335938 42.390625 -52.265625 C 42.097656 -53.191406 41.488281 -53.828125 40.5625 -54.171875 C 39.632812 -54.515625 38.296875 -54.710938 36.546875 -54.765625 L 36.546875 -56.359375 C 37.867188 -56.304688 39.523438 -56.253906 41.515625 -56.203125 C 43.503906 -56.148438 45.484375 -56.125 47.453125 -56.125 C 49.679688 -56.125 51.75 -56.148438 53.65625 -56.203125 C 55.5625 -56.253906 57.101562 -56.304688 58.28125 -56.359375 L 58.28125 -54.765625 C 56.519531 -54.710938 55.1875 -54.515625 54.28125 -54.171875 C 53.382812 -53.828125 52.773438 -53.191406 52.453125 -52.265625 C 52.140625 -51.335938 51.984375 -49.890625 51.984375 -47.921875 L 51.984375 -8.4375 C 51.984375 -6.53125 52.140625 -5.097656 52.453125 -4.140625 C 52.773438 -3.179688 53.382812 -2.539062 54.28125 -2.21875 C 55.1875 -1.90625 56.519531 -1.695312 58.28125 -1.59375 L 58.28125 0 C 57.101562 -0.101562 55.5625 -0.164062 53.65625 -0.1875 C 51.75 -0.21875 49.679688 -0.234375 47.453125 -0.234375 C 45.484375 -0.234375 43.503906 -0.21875 41.515625 -0.1875 C 39.523438 -0.164062 37.867188 -0.101562 36.546875 0 Z M 3.109375 0 L 3.109375 -1.59375 C 4.910156 -1.695312 6.257812 -1.90625 7.15625 -2.21875 C 8.0625 -2.539062 8.660156 -3.179688 8.953125 -4.140625 C 9.242188 -5.097656 9.390625 -6.53125 9.390625 -8.4375 L 9.390625 -47.921875 C 9.390625 -49.890625 9.242188 -51.335938 8.953125 -52.265625 C 8.660156 -53.191406 8.050781 -53.828125 7.125 -54.171875 C 6.195312 -54.515625 4.859375 -54.710938 3.109375 -54.765625 L 3.109375 -56.359375 C 4.328125 -56.304688 5.90625 -56.253906 7.84375 -56.203125 C 9.78125 -56.148438 11.863281 -56.125 14.09375 -56.125 C 16.101562 -56.125 18.078125 -56.148438 20.015625 -56.203125 C 21.953125 -56.253906 23.5625 -56.304688 24.84375 -56.359375 L 24.84375 -54.765625 C 23.09375 -54.710938 21.765625 -54.515625 20.859375 -54.171875 C 19.953125 -53.828125 19.335938 -53.191406 19.015625 -52.265625 C 18.703125 -51.335938 18.546875 -49.890625 18.546875 -47.921875 L 18.546875 -8.4375 C 18.546875 -6.53125 18.703125 -5.097656 19.015625 -4.140625 C 19.335938 -3.179688 19.953125 -2.539062 20.859375 -2.21875 C 21.765625 -1.90625 23.09375 -1.695312 24.84375 -1.59375 L 24.84375 0 C 23.5625 -0.101562 21.953125 -0.164062 20.015625 -0.1875 C 18.078125 -0.21875 16.101562 -0.234375 14.09375 -0.234375 C 11.863281 -0.234375 9.78125 -0.21875 7.84375 -0.1875 C 5.90625 -0.164062 4.328125 -0.101562 3.109375 0 Z M 14.96875 -27.546875 L 14.96875 -29.140625 L 46.40625 -29.140625 L 46.40625 -27.546875 Z M 14.96875 -27.546875 "/></g></g></g></svg>