<svg xmlns="http://www.w3.org/2000/svg" xmlns:xlink="http://www.w3.org/1999/xlink" width="500" zoomAndPan="magnify" viewBox="0 0 375 374.999991" height="500" preserveAspectRatio="xMidYMid meet" version="1.0"><defs><g/><clipPath id="da4780f9d4"><path d="M 11.546875 11.546875 L 363.453125 11.546875 L 363.453125 363.453125 L 11.546875 363.453125 Z M 11.546875 11.546875 " clip-rule="nonzero"/></clipPath><clipPath id="74ea9f8610"><path d="M 187.5 11.546875 C 90.324219 11.546875 11.546875 90.324219 11.546875 187.5 C 11.546875 284.675781 90.324219 363.453125 187.5 363.453125 C 284.675781 363.453125 363.453125 284.675781 363.453125 187.5 C 363.453125 90.324219 284.675781 11.546875 187.5 11.546875 Z M 187.5 11.546875 " clip-rule="nonzero"/></clipPath><clipPath id="5143e679ef"><path d="M 0.546875 0.546875 L 352.453125 0.546875 L 352.453125 352.453125 L 0.546875 352.453125 Z M 0.546875 0.546875 " clip-rule="nonzero"/></clipPath><clipPath id="a0888cb339"><path d="M 176.5 0.546875 C 79.324219 0.546875 0.546875 79.324219 0.546875 176.5 C 0.546875 273.675781 79.324219 352.453125 176.5 352.453125 C 273.675781 352.453125 352.453125 273.675781 352.453125 176.5 C 352.453125 79.324219 273.675781 0.546875 176.5 0.546875 Z M 176.5 0.546875 " clip-rule="nonzero"/></clipPath><clipPath id="f25b62a238"><rect x="0" width="353" y="0" height="353"/></clipPath><clipPath id="5c6dda0713"><rect x="0" width="239" y="0" height="222"/></clipPath><clipPath id="fd80e27a3b"><path d="M 7.234375 8.9375 L 364.359375 8.9375 L 364.359375 366.0625 L 7.234375 366.0625 Z M 7.234375 8.9375 " clip-rule="nonzero"/></clipPath><clipPath id="141e1e19b9"><path d="M 185.796875 8.9375 C 87.179688 8.9375 7.234375 88.882812 7.234375 187.5 C 7.234375 286.117188 87.179688 366.0625 185.796875 366.0625 C 284.414062 366.0625 364.359375 286.117188 364.359375 187.5 C 364.359375 88.882812 284.414062 8.9375 185.796875 8.9375 Z M 185.796875 8.9375 " clip-rule="nonzero"/></clipPath><clipPath id="0326e14cef"><path d="M 0.234375 0.9375 L 357.359375 0.9375 L 357.359375 358.0625 L 0.234375 358.0625 Z M 0.234375 0.9375 " clip-rule="nonzero"/></clipPath><clipPath id="c522513f23"><path d="M 178.796875 0.9375 C 80.179688 0.9375 0.234375 80.882812 0.234375 179.5 C 0.234375 278.117188 80.179688 358.0625 178.796875 358.0625 C 277.414062 358.0625 357.359375 278.117188 357.359375 179.5 C 357.359375 80.882812 277.414062 0.9375 178.796875 0.9375 Z M 178.796875 0.9375 " clip-rule="nonzero"/></clipPath><clipPath id="df25e25033"><rect x="0" width="358" y="0" height="359"/></clipPath><clipPath id="50f46e4196"><path d="M 9.84375 11.546875 L 361.75 11.546875 L 361.75 363.453125 L 9.84375 363.453125 Z M 9.84375 11.546875 " clip-rule="nonzero"/></clipPath><clipPath id="4dcb0d3664"><path d="M 185.796875 11.546875 C 88.621094 11.546875 9.84375 90.324219 9.84375 187.5 C 9.84375 284.675781 88.621094 363.453125 185.796875 363.453125 C 282.972656 363.453125 361.75 284.675781 361.75 187.5 C 361.75 90.324219 282.972656 11.546875 185.796875 11.546875 Z M 185.796875 11.546875 " clip-rule="nonzero"/></clipPath><clipPath id="729d0a53d0"><path d="M 0.84375 0.546875 L 352.75 0.546875 L 352.75 352.453125 L 0.84375 352.453125 Z M 0.84375 0.546875 " clip-rule="nonzero"/></clipPath><clipPath id="fd7d58395b"><path d="M 176.796875 0.546875 C 79.621094 0.546875 0.84375 79.324219 0.84375 176.5 C 0.84375 273.675781 79.621094 352.453125 176.796875 352.453125 C 273.972656 352.453125 352.75 273.675781 352.75 176.5 C 352.75 79.324219 273.972656 0.546875 176.796875 0.546875 Z M 176.796875 0.546875 " clip-rule="nonzero"/></clipPath><clipPath id="5f238d40b8"><rect x="0" width="353" y="0" height="353"/></clipPath><clipPath id="c6470b4c84"><rect x="0" width="239" y="0" height="222"/></clipPath></defs><rect x="-37.5" width="450" fill="#ffffff" y="-37.499999" height="449.999989" fill-opacity="1"/><rect x="-37.5" width="450" fill="#1b3154" y="-37.499999" height="449.999989" fill-opacity="1"/><g clip-path="url(#da4780f9d4)"><g clip-path="url(#74ea9f8610)"><g transform="matrix(1, 0, 0, 1, 11, 11)"><g clip-path="url(#f25b62a238)"><g clip-path="url(#5143e679ef)"><g clip-path="url(#a0888cb339)"><path fill="#1b3154" d="M 0.546875 0.546875 L 352.453125 0.546875 L 352.453125 352.453125 L 0.546875 352.453125 Z M 0.546875 0.546875 " fill-opacity="1" fill-rule="nonzero"/></g></g></g></g></g></g><g transform="matrix(1, 0, 0, 1, 68, 76)"><g clip-path="url(#5c6dda0713)"><g fill="#ffffff" fill-opacity="1"><g transform="translate(0.939326, 179.565395)"><g><path d="M 6.453125 -117.078125 C 8.984375 -116.960938 12.257812 -116.847656 16.28125 -116.734375 C 20.3125 -116.628906 24.3125 -116.578125 28.28125 -116.578125 C 33.570312 -116.578125 38.613281 -116.628906 43.40625 -116.734375 C 48.195312 -116.847656 51.585938 -116.90625 53.578125 -116.90625 C 62.941406 -116.90625 70.738281 -115.691406 76.96875 -113.265625 C 83.195312 -110.847656 87.828125 -107.457031 90.859375 -103.09375 C 93.890625 -98.738281 95.40625 -93.753906 95.40625 -88.140625 C 95.40625 -84.722656 94.71875 -81.109375 93.34375 -77.296875 C 91.96875 -73.492188 89.570312 -69.96875 86.15625 -66.71875 C 82.738281 -63.46875 78.109375 -60.796875 72.265625 -58.703125 C 66.421875 -56.609375 58.976562 -55.5625 49.9375 -55.5625 L 34.0625 -55.5625 L 34.0625 -58.875 L 48.28125 -58.875 C 55.664062 -58.875 61.316406 -60.113281 65.234375 -62.59375 C 69.148438 -65.070312 71.796875 -68.378906 73.171875 -72.515625 C 74.546875 -76.648438 75.234375 -81.25 75.234375 -86.3125 C 75.234375 -95.019531 73.359375 -101.769531 69.609375 -106.5625 C 65.867188 -111.363281 59.367188 -113.765625 50.109375 -113.765625 C 45.367188 -113.765625 42.253906 -112.828125 40.765625 -110.953125 C 39.273438 -109.078125 38.53125 -105.273438 38.53125 -99.546875 L 38.53125 -17.53125 C 38.53125 -13.5625 38.859375 -10.582031 39.515625 -8.59375 C 40.179688 -6.613281 41.453125 -5.289062 43.328125 -4.625 C 45.203125 -3.96875 47.957031 -3.53125 51.59375 -3.3125 L 51.59375 0 C 48.945312 -0.21875 45.609375 -0.351562 41.578125 -0.40625 C 37.554688 -0.46875 33.453125 -0.5 29.265625 -0.5 C 24.640625 -0.5 20.3125 -0.46875 16.28125 -0.40625 C 12.257812 -0.351562 8.984375 -0.21875 6.453125 0 L 6.453125 -3.3125 C 10.203125 -3.53125 13.007812 -3.96875 14.875 -4.625 C 16.75 -5.289062 17.988281 -6.613281 18.59375 -8.59375 C 19.207031 -10.582031 19.515625 -13.5625 19.515625 -17.53125 L 19.515625 -99.546875 C 19.515625 -103.628906 19.207031 -106.632812 18.59375 -108.5625 C 17.988281 -110.488281 16.722656 -111.8125 14.796875 -112.53125 C 12.867188 -113.25 10.085938 -113.660156 6.453125 -113.765625 Z M 34.390625 -58.375 C 40.015625 -58.15625 44.535156 -57.90625 47.953125 -57.625 C 51.367188 -57.351562 54.234375 -57.101562 56.546875 -56.875 C 58.867188 -56.65625 61.019531 -56.382812 63 -56.0625 C 71.269531 -54.957031 77.304688 -52.75 81.109375 -49.4375 C 84.910156 -46.132812 87.53125 -41.066406 88.96875 -34.234375 L 93.09375 -17.359375 C 94.082031 -12.617188 95.15625 -9.253906 96.3125 -7.265625 C 97.476562 -5.285156 99.21875 -4.296875 101.53125 -4.296875 C 103.289062 -4.410156 104.75 -4.9375 105.90625 -5.875 C 107.070312 -6.8125 108.316406 -8.101562 109.640625 -9.75 L 111.953125 -7.9375 C 109.410156 -4.519531 106.757812 -1.957031 104 -0.25 C 101.25 1.457031 97.5625 2.3125 92.9375 2.3125 C 88.195312 2.3125 84.144531 1.070312 80.78125 -1.40625 C 77.414062 -3.882812 75.015625 -8.597656 73.578125 -15.546875 L 70.28125 -32.078125 C 69.289062 -36.816406 68.1875 -40.921875 66.96875 -44.390625 C 65.757812 -47.867188 64.078125 -50.597656 61.921875 -52.578125 C 59.773438 -54.566406 56.660156 -55.5625 52.578125 -55.5625 L 34.71875 -55.5625 Z M 34.390625 -58.375 "/></g></g></g><g fill="#ffffff" fill-opacity="1"><g transform="translate(110.561708, 179.565395)"><g><path d="M 75.90625 0 L 75.90625 -3.3125 C 79.644531 -3.53125 82.453125 -3.96875 84.328125 -4.625 C 86.203125 -5.289062 87.441406 -6.613281 88.046875 -8.59375 C 88.660156 -10.582031 88.96875 -13.5625 88.96875 -17.53125 L 88.96875 -99.546875 C 88.96875 -103.628906 88.660156 -106.632812 88.046875 -108.5625 C 87.441406 -110.488281 86.175781 -111.8125 84.25 -112.53125 C 82.320312 -113.25 79.539062 -113.660156 75.90625 -113.765625 L 75.90625 -117.078125 C 78.65625 -116.960938 82.097656 -116.847656 86.234375 -116.734375 C 90.367188 -116.628906 94.472656 -116.578125 98.546875 -116.578125 C 103.179688 -116.578125 107.484375 -116.628906 111.453125 -116.734375 C 115.421875 -116.847656 118.617188 -116.960938 121.046875 -117.078125 L 121.046875 -113.765625 C 117.410156 -113.660156 114.65625 -113.25 112.78125 -112.53125 C 110.90625 -111.8125 109.632812 -110.488281 108.96875 -108.5625 C 108.3125 -106.632812 107.984375 -103.628906 107.984375 -99.546875 L 107.984375 -17.53125 C 107.984375 -13.5625 108.3125 -10.582031 108.96875 -8.59375 C 109.632812 -6.613281 110.90625 -5.289062 112.78125 -4.625 C 114.65625 -3.96875 117.410156 -3.53125 121.046875 -3.3125 L 121.046875 0 C 118.617188 -0.21875 115.421875 -0.351562 111.453125 -0.40625 C 107.484375 -0.46875 103.179688 -0.5 98.546875 -0.5 C 94.472656 -0.5 90.367188 -0.46875 86.234375 -0.40625 C 82.097656 -0.351562 78.65625 -0.21875 75.90625 0 Z M 6.453125 0 L 6.453125 -3.3125 C 10.203125 -3.53125 13.007812 -3.96875 14.875 -4.625 C 16.75 -5.289062 17.988281 -6.613281 18.59375 -8.59375 C 19.207031 -10.582031 19.515625 -13.5625 19.515625 -17.53125 L 19.515625 -99.546875 C 19.515625 -103.628906 19.207031 -106.632812 18.59375 -108.5625 C 17.988281 -110.488281 16.722656 -111.8125 14.796875 -112.53125 C 12.867188 -113.25 10.085938 -113.660156 6.453125 -113.765625 L 6.453125 -117.078125 C 8.984375 -116.960938 12.257812 -116.847656 16.28125 -116.734375 C 20.3125 -116.628906 24.640625 -116.578125 29.265625 -116.578125 C 33.453125 -116.578125 37.554688 -116.628906 41.578125 -116.734375 C 45.609375 -116.847656 48.945312 -116.960938 51.59375 -117.078125 L 51.59375 -113.765625 C 47.957031 -113.660156 45.203125 -113.25 43.328125 -112.53125 C 41.453125 -111.8125 40.179688 -110.488281 39.515625 -108.5625 C 38.859375 -106.632812 38.53125 -103.628906 38.53125 -99.546875 L 38.53125 -17.53125 C 38.53125 -13.5625 38.859375 -10.582031 39.515625 -8.59375 C 40.179688 -6.613281 41.453125 -5.289062 43.328125 -4.625 C 45.203125 -3.96875 47.957031 -3.53125 51.59375 -3.3125 L 51.59375 0 C 48.945312 -0.21875 45.609375 -0.351562 41.578125 -0.40625 C 37.554688 -0.46875 33.453125 -0.5 29.265625 -0.5 C 24.640625 -0.5 20.3125 -0.46875 16.28125 -0.40625 C 12.257812 -0.351562 8.984375 -0.21875 6.453125 0 Z M 31.09375 -57.21875 L 31.09375 -60.515625 L 96.40625 -60.515625 L 96.40625 -57.21875 Z M 31.09375 -57.21875 "/></g></g></g></g></g><g clip-path="url(#fd80e27a3b)"><g clip-path="url(#141e1e19b9)"><g transform="matrix(1, 0, 0, 1, 7, 8)"><g clip-path="url(#df25e25033)"><g clip-path="url(#0326e14cef)"><g clip-path="url(#c522513f23)"><path fill="#ffffff" d="M 0.234375 0.9375 L 357.359375 0.9375 L 357.359375 358.0625 L 0.234375 358.0625 Z M 0.234375 0.9375 " fill-opacity="1" fill-rule="nonzero"/></g></g></g></g></g></g><g clip-path="url(#50f46e4196)"><g clip-path="url(#4dcb0d3664)"><g transform="matrix(1, 0, 0, 1, 9, 11)"><g clip-path="url(#5f238d40b8)"><g clip-path="url(#729d0a53d0)"><g clip-path="url(#fd7d58395b)"><path fill="#1b3154" d="M 0.84375 0.546875 L 352.75 0.546875 L 352.75 352.453125 L 0.84375 352.453125 Z M 0.84375 0.546875 " fill-opacity="1" fill-rule="nonzero"/></g></g></g></g></g></g><g transform="matrix(1, 0, 0, 1, 68, 76)"><g clip-path="url(#c6470b4c84)"><g fill="#ffffff" fill-opacity="1"><g transform="translate(0.939326, 179.565395)"><g><path d="M 6.453125 -117.078125 C 8.984375 -116.960938 12.257812 -116.847656 16.28125 -116.734375 C 20.3125 -116.628906 24.3125 -116.578125 28.28125 -116.578125 C 33.570312 -116.578125 38.613281 -116.628906 43.40625 -116.734375 C 48.195312 -116.847656 51.585938 -116.90625 53.578125 -116.90625 C 62.941406 -116.90625 70.738281 -115.691406 76.96875 -113.265625 C 83.195312 -110.847656 87.828125 -107.457031 90.859375 -103.09375 C 93.890625 -98.738281 95.40625 -93.753906 95.40625 -88.140625 C 95.40625 -84.722656 94.71875 -81.109375 93.34375 -77.296875 C 91.96875 -73.492188 89.570312 -69.96875 86.15625 -66.71875 C 82.738281 -63.46875 78.109375 -60.796875 72.265625 -58.703125 C 66.421875 -56.609375 58.976562 -55.5625 49.9375 -55.5625 L 34.0625 -55.5625 L 34.0625 -58.875 L 48.28125 -58.875 C 55.664062 -58.875 61.316406 -60.113281 65.234375 -62.59375 C 69.148438 -65.070312 71.796875 -68.378906 73.171875 -72.515625 C 74.546875 -76.648438 75.234375 -81.25 75.234375 -86.3125 C 75.234375 -95.019531 73.359375 -101.769531 69.609375 -106.5625 C 65.867188 -111.363281 59.367188 -113.765625 50.109375 -113.765625 C 45.367188 -113.765625 42.253906 -112.828125 40.765625 -110.953125 C 39.273438 -109.078125 38.53125 -105.273438 38.53125 -99.546875 L 38.53125 -17.53125 C 38.53125 -13.5625 38.859375 -10.582031 39.515625 -8.59375 C 40.179688 -6.613281 41.453125 -5.289062 43.328125 -4.625 C 45.203125 -3.96875 47.957031 -3.53125 51.59375 -3.3125 L 51.59375 0 C 48.945312 -0.21875 45.609375 -0.351562 41.578125 -0.40625 C 37.554688 -0.46875 33.453125 -0.5 29.265625 -0.5 C 24.640625 -0.5 20.3125 -0.46875 16.28125 -0.40625 C 12.257812 -0.351562 8.984375 -0.21875 6.453125 0 L 6.453125 -3.3125 C 10.203125 -3.53125 13.007812 -3.96875 14.875 -4.625 C 16.75 -5.289062 17.988281 -6.613281 18.59375 -8.59375 C 19.207031 -10.582031 19.515625 -13.5625 19.515625 -17.53125 L 19.515625 -99.546875 C 19.515625 -103.628906 19.207031 -106.632812 18.59375 -108.5625 C 17.988281 -110.488281 16.722656 -111.8125 14.796875 -112.53125 C 12.867188 -113.25 10.085938 -113.660156 6.453125 -113.765625 Z M 34.390625 -58.375 C 40.015625 -58.15625 44.535156 -57.90625 47.953125 -57.625 C 51.367188 -57.351562 54.234375 -57.101562 56.546875 -56.875 C 58.867188 -56.65625 61.019531 -56.382812 63 -56.0625 C 71.269531 -54.957031 77.304688 -52.75 81.109375 -49.4375 C 84.910156 -46.132812 87.53125 -41.066406 88.96875 -34.234375 L 93.09375 -17.359375 C 94.082031 -12.617188 95.15625 -9.253906 96.3125 -7.265625 C 97.476562 -5.285156 99.21875 -4.296875 101.53125 -4.296875 C 103.289062 -4.410156 104.75 -4.9375 105.90625 -5.875 C 107.070312 -6.8125 108.316406 -8.101562 109.640625 -9.75 L 111.953125 -7.9375 C 109.410156 -4.519531 106.757812 -1.957031 104 -0.25 C 101.25 1.457031 97.5625 2.3125 92.9375 2.3125 C 88.195312 2.3125 84.144531 1.070312 80.78125 -1.40625 C 77.414062 -3.882812 75.015625 -8.597656 73.578125 -15.546875 L 70.28125 -32.078125 C 69.289062 -36.816406 68.1875 -40.921875 66.96875 -44.390625 C 65.757812 -47.867188 64.078125 -50.597656 61.921875 -52.578125 C 59.773438 -54.566406 56.660156 -55.5625 52.578125 -55.5625 L 34.71875 -55.5625 Z M 34.390625 -58.375 "/></g></g></g><g fill="#ffffff" fill-opacity="1"><g transform="translate(110.561708, 179.565395)"><g><path d="M 75.90625 0 L 75.90625 -3.3125 C 79.644531 -3.53125 82.453125 -3.96875 84.328125 -4.625 C 86.203125 -5.289062 87.441406 -6.613281 88.046875 -8.59375 C 88.660156 -10.582031 88.96875 -13.5625 88.96875 -17.53125 L 88.96875 -99.546875 C 88.96875 -103.628906 88.660156 -106.632812 88.046875 -108.5625 C 87.441406 -110.488281 86.175781 -111.8125 84.25 -112.53125 C 82.320312 -113.25 79.539062 -113.660156 75.90625 -113.765625 L 75.90625 -117.078125 C 78.65625 -116.960938 82.097656 -116.847656 86.234375 -116.734375 C 90.367188 -116.628906 94.472656 -116.578125 98.546875 -116.578125 C 103.179688 -116.578125 107.484375 -116.628906 111.453125 -116.734375 C 115.421875 -116.847656 118.617188 -116.960938 121.046875 -117.078125 L 121.046875 -113.765625 C 117.410156 -113.660156 114.65625 -113.25 112.78125 -112.53125 C 110.90625 -111.8125 109.632812 -110.488281 108.96875 -108.5625 C 108.3125 -106.632812 107.984375 -103.628906 107.984375 -99.546875 L 107.984375 -17.53125 C 107.984375 -13.5625 108.3125 -10.582031 108.96875 -8.59375 C 109.632812 -6.613281 110.90625 -5.289062 112.78125 -4.625 C 114.65625 -3.96875 117.410156 -3.53125 121.046875 -3.3125 L 121.046875 0 C 118.617188 -0.21875 115.421875 -0.351562 111.453125 -0.40625 C 107.484375 -0.46875 103.179688 -0.5 98.546875 -0.5 C 94.472656 -0.5 90.367188 -0.46875 86.234375 -0.40625 C 82.097656 -0.351562 78.65625 -0.21875 75.90625 0 Z M 6.453125 0 L 6.453125 -3.3125 C 10.203125 -3.53125 13.007812 -3.96875 14.875 -4.625 C 16.75 -5.289062 17.988281 -6.613281 18.59375 -8.59375 C 19.207031 -10.582031 19.515625 -13.5625 19.515625 -17.53125 L 19.515625 -99.546875 C 19.515625 -103.628906 19.207031 -106.632812 18.59375 -108.5625 C 17.988281 -110.488281 16.722656 -111.8125 14.796875 -112.53125 C 12.867188 -113.25 10.085938 -113.660156 6.453125 -113.765625 L 6.453125 -117.078125 C 8.984375 -116.960938 12.257812 -116.847656 16.28125 -116.734375 C 20.3125 -116.628906 24.640625 -116.578125 29.265625 -116.578125 C 33.453125 -116.578125 37.554688 -116.628906 41.578125 -116.734375 C 45.609375 -116.847656 48.945312 -116.960938 51.59375 -117.078125 L 51.59375 -113.765625 C 47.957031 -113.660156 45.203125 -113.25 43.328125 -112.53125 C 41.453125 -111.8125 40.179688 -110.488281 39.515625 -108.5625 C 38.859375 -106.632812 38.53125 -103.628906 38.53125 -99.546875 L 38.53125 -17.53125 C 38.53125 -13.5625 38.859375 -10.582031 39.515625 -8.59375 C 40.179688 -6.613281 41.453125 -5.289062 43.328125 -4.625 C 45.203125 -3.96875 47.957031 -3.53125 51.59375 -3.3125 L 51.59375 0 C 48.945312 -0.21875 45.609375 -0.351562 41.578125 -0.40625 C 37.554688 -0.46875 33.453125 -0.5 29.265625 -0.5 C 24.640625 -0.5 20.3125 -0.46875 16.28125 -0.40625 C 12.257812 -0.351562 8.984375 -0.21875 6.453125 0 Z M 31.09375 -57.21875 L 31.09375 -60.515625 L 96.40625 -60.515625 L 96.40625 -57.21875 Z M 31.09375 -57.21875 "/></g></g></g></g></g></svg>