<svg xmlns="http://www.w3.org/2000/svg" xmlns:xlink="http://www.w3.org/1999/xlink" width="1600" zoomAndPan="magnify" viewBox="0 0 1200 314.999992" height="420" preserveAspectRatio="xMidYMid meet" version="1.0"><defs><g/><clipPath id="96ef150040"><rect x="0" width="1138" y="0" height="139"/></clipPath></defs><rect x="-120" width="1440" fill="#ffffff" y="-31.499999" height="377.99999" fill-opacity="1"/><rect x="-120" width="1440" fill="#1b3154" y="-31.499999" height="377.99999" fill-opacity="1"/><g transform="matrix(1, 0, 0, 1, 31, 88)"><g clip-path="url(#96ef150040)"><g fill="#ffffff" fill-opacity="1"><g transform="translate(0.590669, 112.04803)"><g><path d="M 4 -72.65625 C 5.570312 -72.59375 7.609375 -72.523438 10.109375 -72.453125 C 12.609375 -72.378906 15.085938 -72.34375 17.546875 -72.34375 C 20.828125 -72.34375 23.957031 -72.378906 26.9375 -72.453125 C 29.914062 -72.523438 32.019531 -72.5625 33.25 -72.5625 C 39.0625 -72.5625 43.898438 -71.804688 47.765625 -70.296875 C 51.628906 -68.796875 54.503906 -66.691406 56.390625 -63.984375 C 58.273438 -61.285156 59.21875 -58.191406 59.21875 -54.703125 C 59.21875 -52.578125 58.789062 -50.332031 57.9375 -47.96875 C 57.082031 -45.613281 55.59375 -43.425781 53.46875 -41.40625 C 51.34375 -39.382812 48.46875 -37.722656 44.84375 -36.421875 C 41.21875 -35.128906 36.601562 -34.484375 31 -34.484375 L 21.140625 -34.484375 L 21.140625 -36.53125 L 29.96875 -36.53125 C 34.550781 -36.53125 38.054688 -37.300781 40.484375 -38.84375 C 42.910156 -40.382812 44.550781 -42.4375 45.40625 -45 C 46.257812 -47.5625 46.6875 -50.414062 46.6875 -53.5625 C 46.6875 -58.96875 45.523438 -63.160156 43.203125 -66.140625 C 40.878906 -69.117188 36.84375 -70.609375 31.09375 -70.609375 C 28.15625 -70.609375 26.222656 -70.023438 25.296875 -68.859375 C 24.367188 -67.691406 23.90625 -65.332031 23.90625 -61.78125 L 23.90625 -10.875 C 23.90625 -8.414062 24.109375 -6.566406 24.515625 -5.328125 C 24.929688 -4.097656 25.71875 -3.273438 26.875 -2.859375 C 28.039062 -2.453125 29.753906 -2.179688 32.015625 -2.046875 L 32.015625 0 C 30.378906 -0.132812 28.3125 -0.21875 25.8125 -0.25 C 23.3125 -0.289062 20.765625 -0.3125 18.171875 -0.3125 C 15.296875 -0.3125 12.609375 -0.289062 10.109375 -0.25 C 7.609375 -0.21875 5.570312 -0.132812 4 0 L 4 -2.046875 C 6.320312 -2.179688 8.066406 -2.453125 9.234375 -2.859375 C 10.398438 -3.273438 11.171875 -4.097656 11.546875 -5.328125 C 11.921875 -6.566406 12.109375 -8.414062 12.109375 -10.875 L 12.109375 -61.78125 C 12.109375 -64.3125 11.921875 -66.175781 11.546875 -67.375 C 11.171875 -68.570312 10.382812 -69.390625 9.1875 -69.828125 C 7.988281 -70.273438 6.257812 -70.535156 4 -70.609375 Z M 21.34375 -36.234375 C 24.832031 -36.085938 27.632812 -35.929688 29.75 -35.765625 C 31.875 -35.597656 33.65625 -35.441406 35.09375 -35.296875 C 36.53125 -35.160156 37.863281 -34.992188 39.09375 -34.796875 C 44.226562 -34.109375 47.972656 -32.738281 50.328125 -30.6875 C 52.691406 -28.632812 54.320312 -25.488281 55.21875 -21.25 L 57.78125 -10.78125 C 58.394531 -7.832031 59.0625 -5.742188 59.78125 -4.515625 C 60.5 -3.285156 61.578125 -2.671875 63.015625 -2.671875 C 64.109375 -2.734375 65.015625 -3.054688 65.734375 -3.640625 C 66.453125 -4.222656 67.222656 -5.03125 68.046875 -6.0625 L 69.484375 -4.921875 C 67.898438 -2.804688 66.253906 -1.21875 64.546875 -0.15625 C 62.835938 0.90625 60.546875 1.4375 57.671875 1.4375 C 54.734375 1.4375 52.21875 0.664062 50.125 -0.875 C 48.039062 -2.414062 46.554688 -5.335938 45.671875 -9.640625 L 43.609375 -19.90625 C 42.992188 -22.851562 42.3125 -25.398438 41.5625 -27.546875 C 40.8125 -29.703125 39.769531 -31.394531 38.4375 -32.625 C 37.101562 -33.863281 35.171875 -34.484375 32.640625 -34.484375 L 21.546875 -34.484375 Z M 21.34375 -36.234375 "/></g></g></g><g fill="#ffffff" fill-opacity="1"><g transform="translate(68.619704, 112.04803)"><g><path d="M 47.109375 0 L 47.109375 -2.046875 C 49.429688 -2.179688 51.171875 -2.453125 52.328125 -2.859375 C 53.492188 -3.273438 54.265625 -4.097656 54.640625 -5.328125 C 55.023438 -6.566406 55.21875 -8.414062 55.21875 -10.875 L 55.21875 -61.78125 C 55.21875 -64.3125 55.023438 -66.175781 54.640625 -67.375 C 54.265625 -68.570312 53.476562 -69.390625 52.28125 -69.828125 C 51.082031 -70.273438 49.359375 -70.535156 47.109375 -70.609375 L 47.109375 -72.65625 C 48.816406 -72.59375 50.953125 -72.523438 53.515625 -72.453125 C 56.085938 -72.378906 58.640625 -72.34375 61.171875 -72.34375 C 64.035156 -72.34375 66.695312 -72.378906 69.15625 -72.453125 C 71.625 -72.523438 73.613281 -72.59375 75.125 -72.65625 L 75.125 -70.609375 C 72.863281 -70.535156 71.148438 -70.273438 69.984375 -69.828125 C 68.828125 -69.390625 68.039062 -68.570312 67.625 -67.375 C 67.21875 -66.175781 67.015625 -64.3125 67.015625 -61.78125 L 67.015625 -10.875 C 67.015625 -8.414062 67.21875 -6.566406 67.625 -5.328125 C 68.039062 -4.097656 68.828125 -3.273438 69.984375 -2.859375 C 71.148438 -2.453125 72.863281 -2.179688 75.125 -2.046875 L 75.125 0 C 73.613281 -0.132812 71.625 -0.21875 69.15625 -0.25 C 66.695312 -0.289062 64.035156 -0.3125 61.171875 -0.3125 C 58.640625 -0.3125 56.085938 -0.289062 53.515625 -0.25 C 50.953125 -0.21875 48.816406 -0.132812 47.109375 0 Z M 4 0 L 4 -2.046875 C 6.320312 -2.179688 8.066406 -2.453125 9.234375 -2.859375 C 10.398438 -3.273438 11.171875 -4.097656 11.546875 -5.328125 C 11.921875 -6.566406 12.109375 -8.414062 12.109375 -10.875 L 12.109375 -61.78125 C 12.109375 -64.3125 11.921875 -66.175781 11.546875 -67.375 C 11.171875 -68.570312 10.382812 -69.390625 9.1875 -69.828125 C 7.988281 -70.273438 6.257812 -70.535156 4 -70.609375 L 4 -72.65625 C 5.570312 -72.59375 7.609375 -72.523438 10.109375 -72.453125 C 12.609375 -72.378906 15.296875 -72.34375 18.171875 -72.34375 C 20.765625 -72.34375 23.3125 -72.378906 25.8125 -72.453125 C 28.3125 -72.523438 30.378906 -72.59375 32.015625 -72.65625 L 32.015625 -70.609375 C 29.753906 -70.535156 28.039062 -70.273438 26.875 -69.828125 C 25.71875 -69.390625 24.929688 -68.570312 24.515625 -67.375 C 24.109375 -66.175781 23.90625 -64.3125 23.90625 -61.78125 L 23.90625 -10.875 C 23.90625 -8.414062 24.109375 -6.566406 24.515625 -5.328125 C 24.929688 -4.097656 25.71875 -3.273438 26.875 -2.859375 C 28.039062 -2.453125 29.753906 -2.179688 32.015625 -2.046875 L 32.015625 0 C 30.378906 -0.132812 28.3125 -0.21875 25.8125 -0.25 C 23.3125 -0.289062 20.765625 -0.3125 18.171875 -0.3125 C 15.296875 -0.3125 12.609375 -0.289062 10.109375 -0.25 C 7.609375 -0.21875 5.570312 -0.132812 4 0 Z M 19.296875 -35.515625 L 19.296875 -37.5625 L 59.828125 -37.5625 L 59.828125 -35.515625 Z M 19.296875 -35.515625 "/></g></g></g><g fill="#ffffff" fill-opacity="1"><g transform="translate(147.730386, 112.04803)"><g/></g></g><g fill="#ffffff" fill-opacity="1"><g transform="translate(172.766708, 112.04803)"><g><path d="M 39 -74.09375 C 43.507812 -74.09375 47.21875 -73.425781 50.125 -72.09375 C 53.039062 -70.757812 55.625 -69.203125 57.875 -67.421875 C 59.25 -66.398438 60.296875 -66.28125 61.015625 -67.0625 C 61.734375 -67.851562 62.226562 -69.71875 62.5 -72.65625 L 64.859375 -72.65625 C 64.722656 -70.0625 64.617188 -66.929688 64.546875 -63.265625 C 64.484375 -59.609375 64.453125 -54.734375 64.453125 -48.640625 L 62.09375 -48.640625 C 61.613281 -51.648438 61.148438 -54.113281 60.703125 -56.03125 C 60.253906 -57.945312 59.671875 -59.585938 58.953125 -60.953125 C 58.234375 -62.328125 57.257812 -63.664062 56.03125 -64.96875 C 54.050781 -67.425781 51.625 -69.203125 48.75 -70.296875 C 45.875 -71.390625 42.828125 -71.9375 39.609375 -71.9375 C 36.117188 -71.9375 33.039062 -71.0625 30.375 -69.3125 C 27.707031 -67.570312 25.46875 -65.09375 23.65625 -61.875 C 21.84375 -58.664062 20.457031 -54.867188 19.5 -50.484375 C 18.539062 -46.109375 18.0625 -41.320312 18.0625 -36.125 C 18.0625 -30.789062 18.570312 -25.945312 19.59375 -21.59375 C 20.625 -17.25 22.113281 -13.519531 24.0625 -10.40625 C 26.007812 -7.300781 28.367188 -4.910156 31.140625 -3.234375 C 33.910156 -1.554688 37.007812 -0.71875 40.4375 -0.71875 C 43.238281 -0.71875 46.144531 -1.28125 49.15625 -2.40625 C 52.164062 -3.539062 54.5625 -5.269531 56.34375 -7.59375 C 58.257812 -9.644531 59.578125 -11.953125 60.296875 -14.515625 C 61.015625 -17.085938 61.613281 -20.597656 62.09375 -25.046875 L 64.453125 -25.046875 C 64.453125 -18.742188 64.484375 -13.660156 64.546875 -9.796875 C 64.617188 -5.929688 64.722656 -2.664062 64.859375 0 L 62.5 0 C 62.226562 -2.9375 61.765625 -4.78125 61.109375 -5.53125 C 60.460938 -6.289062 59.382812 -6.191406 57.875 -5.234375 C 55.34375 -3.453125 52.65625 -1.894531 49.8125 -0.5625 C 46.976562 0.769531 43.335938 1.4375 38.890625 1.4375 C 32.117188 1.4375 26.203125 -0.03125 21.140625 -2.96875 C 16.078125 -5.914062 12.140625 -10.160156 9.328125 -15.703125 C 6.523438 -21.242188 5.125 -27.914062 5.125 -35.71875 C 5.125 -43.375 6.578125 -50.078125 9.484375 -55.828125 C 12.398438 -61.578125 16.390625 -66.054688 21.453125 -69.265625 C 26.515625 -72.484375 32.363281 -74.09375 39 -74.09375 Z M 39 -74.09375 "/></g></g></g><g fill="#ffffff" fill-opacity="1"><g transform="translate(243.976579, 112.04803)"><g><path d="M 20.53125 -80.359375 L 20.53125 -43 C 22.238281 -47.238281 24.644531 -50.195312 27.75 -51.875 C 30.863281 -53.550781 34.164062 -54.390625 37.65625 -54.390625 C 40.394531 -54.390625 42.632812 -54.03125 44.375 -53.3125 C 46.125 -52.59375 47.582031 -51.617188 48.75 -50.390625 C 49.976562 -49.085938 50.863281 -47.410156 51.40625 -45.359375 C 51.957031 -43.304688 52.234375 -40.535156 52.234375 -37.046875 L 52.234375 -9.546875 C 52.234375 -6.671875 52.796875 -4.71875 53.921875 -3.6875 C 55.054688 -2.664062 56.957031 -2.15625 59.625 -2.15625 L 59.625 0 C 58.394531 -0.0703125 56.546875 -0.15625 54.078125 -0.25 C 51.617188 -0.351562 49.226562 -0.40625 46.90625 -0.40625 C 44.507812 -0.40625 42.164062 -0.351562 39.875 -0.25 C 37.582031 -0.15625 35.890625 -0.0703125 34.796875 0 L 34.796875 -2.15625 C 37.117188 -2.15625 38.757812 -2.664062 39.71875 -3.6875 C 40.675781 -4.71875 41.15625 -6.671875 41.15625 -9.546875 L 41.15625 -39.921875 C 41.15625 -41.898438 40.984375 -43.691406 40.640625 -45.296875 C 40.296875 -46.910156 39.554688 -48.210938 38.421875 -49.203125 C 37.296875 -50.203125 35.640625 -50.703125 33.453125 -50.703125 C 30.992188 -50.703125 28.785156 -50 26.828125 -48.59375 C 24.878906 -47.1875 23.34375 -45.25 22.21875 -42.78125 C 21.09375 -40.320312 20.53125 -37.519531 20.53125 -34.375 L 20.53125 -9.546875 C 20.53125 -6.671875 21.007812 -4.71875 21.96875 -3.6875 C 22.925781 -2.664062 24.566406 -2.15625 26.890625 -2.15625 L 26.890625 0 C 25.722656 -0.0703125 24.023438 -0.15625 21.796875 -0.25 C 19.578125 -0.351562 17.304688 -0.40625 14.984375 -0.40625 C 12.585938 -0.40625 10.140625 -0.351562 7.640625 -0.25 C 5.148438 -0.15625 3.285156 -0.0703125 2.046875 0 L 2.046875 -2.15625 C 4.722656 -2.15625 6.625 -2.664062 7.75 -3.6875 C 8.875 -4.71875 9.4375 -6.671875 9.4375 -9.546875 L 9.4375 -68.046875 C 9.4375 -71.117188 8.90625 -73.390625 7.84375 -74.859375 C 6.789062 -76.335938 4.859375 -77.078125 2.046875 -77.078125 L 2.046875 -79.21875 C 4.242188 -79.019531 6.367188 -78.921875 8.421875 -78.921875 C 10.671875 -78.921875 12.820312 -79.039062 14.875 -79.28125 C 16.925781 -79.519531 18.8125 -79.878906 20.53125 -80.359375 Z M 20.53125 -80.359375 "/></g></g></g><g fill="#ffffff" fill-opacity="1"><g transform="translate(305.028277, 112.04803)"><g><path d="M 17.234375 0.71875 C 14.367188 0.71875 11.90625 0.171875 9.84375 -0.921875 C 7.789062 -2.015625 6.25 -3.519531 5.21875 -5.4375 C 4.195312 -7.351562 3.6875 -9.539062 3.6875 -12 C 3.6875 -15.007812 4.367188 -17.457031 5.734375 -19.34375 C 7.109375 -21.226562 8.875 -22.75 11.03125 -23.90625 C 13.1875 -25.070312 15.476562 -26.046875 17.90625 -26.828125 C 20.332031 -27.617188 22.625 -28.375 24.78125 -29.09375 C 26.9375 -29.8125 28.710938 -30.648438 30.109375 -31.609375 C 31.515625 -32.566406 32.21875 -33.832031 32.21875 -35.40625 L 32.21875 -42.390625 C 32.21875 -44.847656 31.820312 -46.8125 31.03125 -48.28125 C 30.25 -49.75 29.191406 -50.789062 27.859375 -51.40625 C 26.523438 -52.03125 24.9375 -52.34375 23.09375 -52.34375 C 21.519531 -52.34375 19.84375 -52.117188 18.0625 -51.671875 C 16.28125 -51.222656 14.878906 -50.351562 13.859375 -49.0625 C 15.359375 -48.644531 16.601562 -47.835938 17.59375 -46.640625 C 18.59375 -45.441406 19.09375 -43.953125 19.09375 -42.171875 C 19.09375 -40.265625 18.457031 -38.757812 17.1875 -37.65625 C 15.925781 -36.5625 14.335938 -36.015625 12.421875 -36.015625 C 10.296875 -36.015625 8.71875 -36.679688 7.6875 -38.015625 C 6.664062 -39.359375 6.15625 -40.914062 6.15625 -42.6875 C 6.15625 -44.539062 6.613281 -46.046875 7.53125 -47.203125 C 8.457031 -48.367188 9.675781 -49.460938 11.1875 -50.484375 C 12.832031 -51.585938 14.9375 -52.515625 17.5 -53.265625 C 20.0625 -54.015625 22.914062 -54.390625 26.0625 -54.390625 C 29.007812 -54.390625 31.554688 -54.0625 33.703125 -53.40625 C 35.859375 -52.757812 37.65625 -51.71875 39.09375 -50.28125 C 40.8125 -48.707031 41.941406 -46.738281 42.484375 -44.375 C 43.035156 -42.019531 43.3125 -39.164062 43.3125 -35.8125 L 43.3125 -7.484375 C 43.3125 -5.773438 43.53125 -4.5625 43.96875 -3.84375 C 44.414062 -3.125 45.15625 -2.765625 46.1875 -2.765625 C 46.863281 -2.765625 47.523438 -2.9375 48.171875 -3.28125 C 48.828125 -3.625 49.597656 -4.140625 50.484375 -4.828125 L 51.515625 -3.078125 C 50.078125 -1.910156 48.625 -0.984375 47.15625 -0.296875 C 45.6875 0.378906 43.820312 0.71875 41.5625 0.71875 C 39.375 0.71875 37.59375 0.378906 36.21875 -0.296875 C 34.851562 -0.984375 33.84375 -1.976562 33.1875 -3.28125 C 32.539062 -4.582031 32.21875 -6.191406 32.21875 -8.109375 C 30.445312 -5.234375 28.328125 -3.039062 25.859375 -1.53125 C 23.398438 -0.03125 20.523438 0.71875 17.234375 0.71875 Z M 22.171875 -4.203125 C 24.085938 -4.203125 25.878906 -4.75 27.546875 -5.84375 C 29.222656 -6.9375 30.78125 -8.582031 32.21875 -10.78125 L 32.21875 -31.203125 C 31.46875 -30.109375 30.375 -29.164062 28.9375 -28.375 C 27.5 -27.59375 25.957031 -26.789062 24.3125 -25.96875 C 22.675781 -25.144531 21.125 -24.203125 19.65625 -23.140625 C 18.1875 -22.078125 16.972656 -20.722656 16.015625 -19.078125 C 15.054688 -17.441406 14.578125 -15.359375 14.578125 -12.828125 C 14.578125 -10.160156 15.257812 -8.054688 16.625 -6.515625 C 17.988281 -4.972656 19.835938 -4.203125 22.171875 -4.203125 Z M 22.171875 -4.203125 "/></g></g></g><g fill="#ffffff" fill-opacity="1"><g transform="translate(356.845258, 112.04803)"><g><path d="M 35.8125 -54.390625 C 37.800781 -54.390625 39.492188 -53.976562 40.890625 -53.15625 C 42.296875 -52.332031 43.359375 -51.285156 44.078125 -50.015625 C 44.796875 -48.753906 45.15625 -47.335938 45.15625 -45.765625 C 45.15625 -43.785156 44.554688 -42.09375 43.359375 -40.6875 C 42.160156 -39.289062 40.570312 -38.59375 38.59375 -38.59375 C 36.875 -38.59375 35.414062 -39.101562 34.21875 -40.125 C 33.019531 -41.15625 32.421875 -42.554688 32.421875 -44.328125 C 32.421875 -45.835938 32.816406 -47.117188 33.609375 -48.171875 C 34.398438 -49.234375 35.304688 -50.078125 36.328125 -50.703125 C 35.640625 -51.242188 34.816406 -51.484375 33.859375 -51.421875 C 32.015625 -51.347656 30.304688 -50.742188 28.734375 -49.609375 C 27.160156 -48.484375 25.828125 -47.046875 24.734375 -45.296875 C 23.640625 -43.554688 22.785156 -41.691406 22.171875 -39.703125 C 21.554688 -37.722656 21.25 -35.878906 21.25 -34.171875 L 21.25 -10.578125 C 21.25 -7.222656 22.171875 -4.976562 24.015625 -3.84375 C 25.859375 -2.71875 28.425781 -2.15625 31.71875 -2.15625 L 31.71875 0 C 30.132812 -0.0703125 27.890625 -0.15625 24.984375 -0.25 C 22.078125 -0.351562 19.015625 -0.40625 15.796875 -0.40625 C 13.335938 -0.40625 10.875 -0.351562 8.40625 -0.25 C 5.945312 -0.15625 4.066406 -0.0703125 2.765625 0 L 2.765625 -2.15625 C 5.429688 -2.15625 7.328125 -2.664062 8.453125 -3.6875 C 9.585938 -4.71875 10.15625 -6.671875 10.15625 -9.546875 L 10.15625 -41.765625 C 10.15625 -44.847656 9.640625 -47.125 8.609375 -48.59375 C 7.585938 -50.0625 5.640625 -50.796875 2.765625 -50.796875 L 2.765625 -52.953125 C 4.960938 -52.742188 7.085938 -52.640625 9.140625 -52.640625 C 11.460938 -52.640625 13.628906 -52.757812 15.640625 -53 C 17.660156 -53.238281 19.53125 -53.597656 21.25 -54.078125 L 21.25 -42.28125 C 22.0625 -44.257812 23.148438 -46.171875 24.515625 -48.015625 C 25.890625 -49.867188 27.535156 -51.394531 29.453125 -52.59375 C 31.367188 -53.789062 33.488281 -54.390625 35.8125 -54.390625 Z M 35.8125 -54.390625 "/></g></g></g><g fill="#ffffff" fill-opacity="1"><g transform="translate(403.224039, 112.04803)"><g><path d="M 20.734375 -69.890625 L 20.734375 -52.859375 L 34.890625 -52.859375 L 34.890625 -50.796875 L 20.734375 -50.796875 L 20.734375 -10.46875 C 20.734375 -7.664062 21.242188 -5.679688 22.265625 -4.515625 C 23.296875 -3.347656 24.769531 -2.765625 26.6875 -2.765625 C 28.457031 -2.765625 30.046875 -3.484375 31.453125 -4.921875 C 32.859375 -6.359375 34.070312 -8.789062 35.09375 -12.21875 L 37.046875 -11.5 C 36.222656 -7.875 34.769531 -4.8125 32.6875 -2.3125 C 30.601562 0.1875 27.539062 1.4375 23.5 1.4375 C 21.175781 1.4375 19.226562 1.144531 17.65625 0.5625 C 16.082031 -0.0195312 14.710938 -0.859375 13.546875 -1.953125 C 12.035156 -3.523438 11.003906 -5.40625 10.453125 -7.59375 C 9.910156 -9.78125 9.640625 -12.6875 9.640625 -16.3125 L 9.640625 -50.796875 L 0.203125 -50.796875 L 0.203125 -52.859375 L 9.640625 -52.859375 L 9.640625 -67.828125 C 11.765625 -67.898438 13.75 -68.085938 15.59375 -68.390625 C 17.445312 -68.703125 19.160156 -69.203125 20.734375 -69.890625 Z M 20.734375 -69.890625 "/></g></g></g><g fill="#ffffff" fill-opacity="1"><g transform="translate(439.341978, 112.04803)"><g><path d="M 28.21875 -54.390625 C 34.238281 -54.390625 38.957031 -52.578125 42.375 -48.953125 C 45.800781 -45.328125 47.515625 -39.582031 47.515625 -31.71875 L 12.109375 -31.71875 L 11.90625 -33.65625 L 36.640625 -33.65625 C 36.703125 -37.007812 36.425781 -40.101562 35.8125 -42.9375 C 35.195312 -45.78125 34.238281 -48.054688 32.9375 -49.765625 C 31.644531 -51.484375 29.9375 -52.34375 27.8125 -52.34375 C 24.875 -52.34375 22.328125 -50.785156 20.171875 -47.671875 C 18.015625 -44.554688 16.695312 -39.578125 16.21875 -32.734375 L 16.515625 -32.21875 C 16.453125 -31.257812 16.382812 -30.21875 16.3125 -29.09375 C 16.25 -27.96875 16.21875 -26.859375 16.21875 -25.765625 C 16.21875 -21.035156 16.9375 -17.0625 18.375 -13.84375 C 19.8125 -10.632812 21.691406 -8.222656 24.015625 -6.609375 C 26.335938 -5.003906 28.695312 -4.203125 31.09375 -4.203125 C 32.9375 -4.203125 34.726562 -4.492188 36.46875 -5.078125 C 38.21875 -5.660156 39.878906 -6.648438 41.453125 -8.046875 C 43.035156 -9.453125 44.441406 -11.390625 45.671875 -13.859375 L 47.71875 -13.03125 C 46.894531 -10.707031 45.628906 -8.414062 43.921875 -6.15625 C 42.210938 -3.894531 40.023438 -2.0625 37.359375 -0.65625 C 34.691406 0.738281 31.578125 1.4375 28.015625 1.4375 C 23.222656 1.4375 19.046875 0.359375 15.484375 -1.796875 C 11.929688 -3.953125 9.195312 -7.046875 7.28125 -11.078125 C 5.363281 -15.117188 4.40625 -19.910156 4.40625 -25.453125 C 4.40625 -31.535156 5.394531 -36.734375 7.375 -41.046875 C 9.363281 -45.359375 12.15625 -48.660156 15.75 -50.953125 C 19.34375 -53.242188 23.5 -54.390625 28.21875 -54.390625 Z M 28.21875 -54.390625 "/></g></g></g><g fill="#ffffff" fill-opacity="1"><g transform="translate(490.953714, 112.04803)"><g><path d="M 35.8125 -54.390625 C 37.800781 -54.390625 39.492188 -53.976562 40.890625 -53.15625 C 42.296875 -52.332031 43.359375 -51.285156 44.078125 -50.015625 C 44.796875 -48.753906 45.15625 -47.335938 45.15625 -45.765625 C 45.15625 -43.785156 44.554688 -42.09375 43.359375 -40.6875 C 42.160156 -39.289062 40.570312 -38.59375 38.59375 -38.59375 C 36.875 -38.59375 35.414062 -39.101562 34.21875 -40.125 C 33.019531 -41.15625 32.421875 -42.554688 32.421875 -44.328125 C 32.421875 -45.835938 32.816406 -47.117188 33.609375 -48.171875 C 34.398438 -49.234375 35.304688 -50.078125 36.328125 -50.703125 C 35.640625 -51.242188 34.816406 -51.484375 33.859375 -51.421875 C 32.015625 -51.347656 30.304688 -50.742188 28.734375 -49.609375 C 27.160156 -48.484375 25.828125 -47.046875 24.734375 -45.296875 C 23.640625 -43.554688 22.785156 -41.691406 22.171875 -39.703125 C 21.554688 -37.722656 21.25 -35.878906 21.25 -34.171875 L 21.25 -10.578125 C 21.25 -7.222656 22.171875 -4.976562 24.015625 -3.84375 C 25.859375 -2.71875 28.425781 -2.15625 31.71875 -2.15625 L 31.71875 0 C 30.132812 -0.0703125 27.890625 -0.15625 24.984375 -0.25 C 22.078125 -0.351562 19.015625 -0.40625 15.796875 -0.40625 C 13.335938 -0.40625 10.875 -0.351562 8.40625 -0.25 C 5.945312 -0.15625 4.066406 -0.0703125 2.765625 0 L 2.765625 -2.15625 C 5.429688 -2.15625 7.328125 -2.664062 8.453125 -3.6875 C 9.585938 -4.71875 10.15625 -6.671875 10.15625 -9.546875 L 10.15625 -41.765625 C 10.15625 -44.847656 9.640625 -47.125 8.609375 -48.59375 C 7.585938 -50.0625 5.640625 -50.796875 2.765625 -50.796875 L 2.765625 -52.953125 C 4.960938 -52.742188 7.085938 -52.640625 9.140625 -52.640625 C 11.460938 -52.640625 13.628906 -52.757812 15.640625 -53 C 17.660156 -53.238281 19.53125 -53.597656 21.25 -54.078125 L 21.25 -42.28125 C 22.0625 -44.257812 23.148438 -46.171875 24.515625 -48.015625 C 25.890625 -49.867188 27.535156 -51.394531 29.453125 -52.59375 C 31.367188 -53.789062 33.488281 -54.390625 35.8125 -54.390625 Z M 35.8125 -54.390625 "/></g></g></g><g fill="#ffffff" fill-opacity="1"><g transform="translate(535.485343, 112.04803)"><g><path d="M 28.21875 -54.390625 C 34.238281 -54.390625 38.957031 -52.578125 42.375 -48.953125 C 45.800781 -45.328125 47.515625 -39.582031 47.515625 -31.71875 L 12.109375 -31.71875 L 11.90625 -33.65625 L 36.640625 -33.65625 C 36.703125 -37.007812 36.425781 -40.101562 35.8125 -42.9375 C 35.195312 -45.78125 34.238281 -48.054688 32.9375 -49.765625 C 31.644531 -51.484375 29.9375 -52.34375 27.8125 -52.34375 C 24.875 -52.34375 22.328125 -50.785156 20.171875 -47.671875 C 18.015625 -44.554688 16.695312 -39.578125 16.21875 -32.734375 L 16.515625 -32.21875 C 16.453125 -31.257812 16.382812 -30.21875 16.3125 -29.09375 C 16.25 -27.96875 16.21875 -26.859375 16.21875 -25.765625 C 16.21875 -21.035156 16.9375 -17.0625 18.375 -13.84375 C 19.8125 -10.632812 21.691406 -8.222656 24.015625 -6.609375 C 26.335938 -5.003906 28.695312 -4.203125 31.09375 -4.203125 C 32.9375 -4.203125 34.726562 -4.492188 36.46875 -5.078125 C 38.21875 -5.660156 39.878906 -6.648438 41.453125 -8.046875 C 43.035156 -9.453125 44.441406 -11.390625 45.671875 -13.859375 L 47.71875 -13.03125 C 46.894531 -10.707031 45.628906 -8.414062 43.921875 -6.15625 C 42.210938 -3.894531 40.023438 -2.0625 37.359375 -0.65625 C 34.691406 0.738281 31.578125 1.4375 28.015625 1.4375 C 23.222656 1.4375 19.046875 0.359375 15.484375 -1.796875 C 11.929688 -3.953125 9.195312 -7.046875 7.28125 -11.078125 C 5.363281 -15.117188 4.40625 -19.910156 4.40625 -25.453125 C 4.40625 -31.535156 5.394531 -36.734375 7.375 -41.046875 C 9.363281 -45.359375 12.15625 -48.660156 15.75 -50.953125 C 19.34375 -53.242188 23.5 -54.390625 28.21875 -54.390625 Z M 28.21875 -54.390625 "/></g></g></g><g fill="#ffffff" fill-opacity="1"><g transform="translate(587.302354, 112.04803)"><g><path d="M 50.796875 -80.453125 L 50.796875 -11.1875 C 50.796875 -8.101562 51.328125 -5.828125 52.390625 -4.359375 C 53.453125 -2.890625 55.382812 -2.15625 58.1875 -2.15625 L 58.1875 0 C 56.0625 -0.207031 53.941406 -0.3125 51.828125 -0.3125 C 49.503906 -0.3125 47.332031 -0.207031 45.3125 0 C 43.289062 0.207031 41.425781 0.582031 39.71875 1.125 L 39.71875 -68.140625 C 39.71875 -71.222656 39.1875 -73.5 38.125 -74.96875 C 37.0625 -76.4375 35.128906 -77.171875 32.328125 -77.171875 L 32.328125 -79.328125 C 34.515625 -79.117188 36.632812 -79.015625 38.6875 -79.015625 C 40.945312 -79.015625 43.101562 -79.132812 45.15625 -79.375 C 47.207031 -79.613281 49.085938 -79.972656 50.796875 -80.453125 Z M 27.703125 -54.390625 C 30.710938 -54.390625 33.46875 -53.738281 35.96875 -52.4375 C 38.46875 -51.132812 40.226562 -48.945312 41.25 -45.875 L 40.03125 -44.75 C 39.070312 -47.207031 37.664062 -49 35.8125 -50.125 C 33.96875 -51.257812 31.882812 -51.828125 29.5625 -51.828125 C 25.65625 -51.828125 22.46875 -49.753906 20 -45.609375 C 17.539062 -41.472656 16.347656 -35.097656 16.421875 -26.484375 C 16.421875 -20.796875 16.898438 -16.15625 17.859375 -12.5625 C 18.816406 -8.976562 20.234375 -6.328125 22.109375 -4.609375 C 23.992188 -2.898438 26.269531 -2.046875 28.9375 -2.046875 C 31.601562 -2.046875 34.015625 -3.175781 36.171875 -5.4375 C 38.328125 -7.695312 39.613281 -10.945312 40.03125 -15.1875 L 40.953125 -13.03125 C 40.265625 -8.382812 38.617188 -4.8125 36.015625 -2.3125 C 33.421875 0.1875 29.929688 1.4375 25.546875 1.4375 C 21.378906 1.4375 17.703125 0.425781 14.515625 -1.59375 C 11.335938 -3.613281 8.894531 -6.691406 7.1875 -10.828125 C 5.476562 -14.960938 4.625 -20.179688 4.625 -26.484375 C 4.625 -32.703125 5.664062 -37.878906 7.75 -42.015625 C 9.832031 -46.160156 12.617188 -49.257812 16.109375 -51.3125 C 19.597656 -53.363281 23.460938 -54.390625 27.703125 -54.390625 Z M 27.703125 -54.390625 "/></g></g></g><g fill="#ffffff" fill-opacity="1"><g transform="translate(647.533172, 112.04803)"><g/></g></g><g fill="#ffffff" fill-opacity="1"><g transform="translate(672.569493, 112.04803)"><g><path d="M 27.203125 -73.890625 C 30.828125 -73.890625 33.59375 -73.476562 35.5 -72.65625 C 37.414062 -71.832031 39.09375 -70.941406 40.53125 -69.984375 C 41.351562 -69.503906 42.019531 -69.144531 42.53125 -68.90625 C 43.050781 -68.664062 43.550781 -68.546875 44.03125 -68.546875 C 44.707031 -68.546875 45.195312 -68.921875 45.5 -69.671875 C 45.8125 -70.429688 46.070312 -71.5625 46.28125 -73.0625 L 48.640625 -73.0625 C 48.578125 -71.832031 48.492188 -70.378906 48.390625 -68.703125 C 48.285156 -67.023438 48.210938 -64.816406 48.171875 -62.078125 C 48.140625 -59.347656 48.125 -55.757812 48.125 -51.3125 L 45.765625 -51.3125 C 45.566406 -54.664062 44.832031 -57.914062 43.5625 -61.0625 C 42.300781 -64.207031 40.453125 -66.769531 38.015625 -68.75 C 35.585938 -70.738281 32.492188 -71.734375 28.734375 -71.734375 C 25.242188 -71.734375 22.351562 -70.6875 20.0625 -68.59375 C 17.769531 -66.507812 16.625 -63.757812 16.625 -60.34375 C 16.625 -57.332031 17.375 -54.816406 18.875 -52.796875 C 20.382812 -50.773438 22.457031 -48.894531 25.09375 -47.15625 C 27.726562 -45.414062 30.722656 -43.484375 34.078125 -41.359375 C 37.492188 -39.171875 40.566406 -37 43.296875 -34.84375 C 46.035156 -32.6875 48.191406 -30.304688 49.765625 -27.703125 C 51.347656 -25.109375 52.140625 -21.960938 52.140625 -18.265625 C 52.140625 -13.816406 51.09375 -10.140625 49 -7.234375 C 46.914062 -4.328125 44.128906 -2.15625 40.640625 -0.71875 C 37.148438 0.71875 33.316406 1.4375 29.140625 1.4375 C 25.316406 1.4375 22.273438 1.023438 20.015625 0.203125 C 17.753906 -0.617188 15.835938 -1.472656 14.265625 -2.359375 C 12.753906 -3.316406 11.59375 -3.796875 10.78125 -3.796875 C 10.09375 -3.796875 9.59375 -3.421875 9.28125 -2.671875 C 8.976562 -1.921875 8.722656 -0.789062 8.515625 0.71875 L 6.15625 0.71875 C 6.289062 -0.789062 6.375 -2.550781 6.40625 -4.5625 C 6.445312 -6.582031 6.484375 -9.234375 6.515625 -12.515625 C 6.546875 -15.804688 6.5625 -19.945312 6.5625 -24.9375 L 8.921875 -24.9375 C 9.203125 -20.695312 9.972656 -16.726562 11.234375 -13.03125 C 12.503906 -9.332031 14.453125 -6.375 17.078125 -4.15625 C 19.710938 -1.9375 23.222656 -0.828125 27.609375 -0.828125 C 29.929688 -0.828125 32.082031 -1.269531 34.0625 -2.15625 C 36.050781 -3.039062 37.660156 -4.441406 38.890625 -6.359375 C 40.117188 -8.273438 40.734375 -10.738281 40.734375 -13.75 C 40.734375 -16.550781 40.066406 -19.015625 38.734375 -21.140625 C 37.398438 -23.265625 35.550781 -25.234375 33.1875 -27.046875 C 30.832031 -28.859375 28.082031 -30.722656 24.9375 -32.640625 C 21.71875 -34.691406 18.707031 -36.742188 15.90625 -38.796875 C 13.101562 -40.847656 10.863281 -43.238281 9.1875 -45.96875 C 7.507812 -48.707031 6.671875 -51.957031 6.671875 -55.71875 C 6.671875 -59.894531 7.644531 -63.316406 9.59375 -65.984375 C 11.539062 -68.648438 14.070312 -70.632812 17.1875 -71.9375 C 20.300781 -73.238281 23.640625 -73.890625 27.203125 -73.890625 Z M 27.203125 -73.890625 "/></g></g></g><g fill="#ffffff" fill-opacity="1"><g transform="translate(729.516851, 112.04803)"><g><path d="M 50.90625 -54.078125 L 50.90625 -11.078125 C 50.90625 -8.003906 51.429688 -5.726562 52.484375 -4.25 C 53.546875 -2.78125 55.484375 -2.046875 58.296875 -2.046875 L 58.296875 0.109375 C 56.171875 -0.0976562 54.046875 -0.203125 51.921875 -0.203125 C 49.671875 -0.203125 47.519531 -0.101562 45.46875 0.09375 C 43.414062 0.300781 41.53125 0.679688 39.8125 1.234375 L 39.8125 -9.953125 C 38.101562 -5.847656 35.726562 -2.921875 32.6875 -1.171875 C 29.644531 0.566406 26.445312 1.4375 23.09375 1.4375 C 20.5625 1.4375 18.40625 1.078125 16.625 0.359375 C 14.84375 -0.359375 13.375 -1.300781 12.21875 -2.46875 C 10.976562 -3.832031 10.117188 -5.59375 9.640625 -7.75 C 9.160156 -9.90625 8.921875 -12.625 8.921875 -15.90625 L 8.921875 -41.765625 C 8.921875 -44.847656 8.40625 -47.125 7.375 -48.59375 C 6.351562 -50.0625 4.410156 -50.796875 1.546875 -50.796875 L 1.546875 -52.953125 C 3.734375 -52.742188 5.851562 -52.640625 7.90625 -52.640625 C 10.15625 -52.640625 12.304688 -52.757812 14.359375 -53 C 16.421875 -53.238281 18.304688 -53.597656 20.015625 -54.078125 L 20.015625 -13.03125 C 20.015625 -11.050781 20.148438 -9.238281 20.421875 -7.59375 C 20.691406 -5.945312 21.335938 -4.644531 22.359375 -3.6875 C 23.390625 -2.726562 25.035156 -2.25 27.296875 -2.25 C 29.691406 -2.25 31.828125 -2.96875 33.703125 -4.40625 C 35.585938 -5.84375 37.078125 -7.789062 38.171875 -10.25 C 39.265625 -12.71875 39.8125 -15.492188 39.8125 -18.578125 L 39.8125 -41.765625 C 39.8125 -44.847656 39.296875 -47.125 38.265625 -48.59375 C 37.242188 -50.0625 35.296875 -50.796875 32.421875 -50.796875 L 32.421875 -52.953125 C 34.617188 -52.742188 36.742188 -52.640625 38.796875 -52.640625 C 41.046875 -52.640625 43.195312 -52.757812 45.25 -53 C 47.3125 -53.238281 49.195312 -53.597656 50.90625 -54.078125 Z M 50.90625 -54.078125 "/></g></g></g><g fill="#ffffff" fill-opacity="1"><g transform="translate(789.952944, 112.04803)"><g><path d="M 35.8125 -54.390625 C 37.800781 -54.390625 39.492188 -53.976562 40.890625 -53.15625 C 42.296875 -52.332031 43.359375 -51.285156 44.078125 -50.015625 C 44.796875 -48.753906 45.15625 -47.335938 45.15625 -45.765625 C 45.15625 -43.785156 44.554688 -42.09375 43.359375 -40.6875 C 42.160156 -39.289062 40.570312 -38.59375 38.59375 -38.59375 C 36.875 -38.59375 35.414062 -39.101562 34.21875 -40.125 C 33.019531 -41.15625 32.421875 -42.554688 32.421875 -44.328125 C 32.421875 -45.835938 32.816406 -47.117188 33.609375 -48.171875 C 34.398438 -49.234375 35.304688 -50.078125 36.328125 -50.703125 C 35.640625 -51.242188 34.816406 -51.484375 33.859375 -51.421875 C 32.015625 -51.347656 30.304688 -50.742188 28.734375 -49.609375 C 27.160156 -48.484375 25.828125 -47.046875 24.734375 -45.296875 C 23.640625 -43.554688 22.785156 -41.691406 22.171875 -39.703125 C 21.554688 -37.722656 21.25 -35.878906 21.25 -34.171875 L 21.25 -10.578125 C 21.25 -7.222656 22.171875 -4.976562 24.015625 -3.84375 C 25.859375 -2.71875 28.425781 -2.15625 31.71875 -2.15625 L 31.71875 0 C 30.132812 -0.0703125 27.890625 -0.15625 24.984375 -0.25 C 22.078125 -0.351562 19.015625 -0.40625 15.796875 -0.40625 C 13.335938 -0.40625 10.875 -0.351562 8.40625 -0.25 C 5.945312 -0.15625 4.066406 -0.0703125 2.765625 0 L 2.765625 -2.15625 C 5.429688 -2.15625 7.328125 -2.664062 8.453125 -3.6875 C 9.585938 -4.71875 10.15625 -6.671875 10.15625 -9.546875 L 10.15625 -41.765625 C 10.15625 -44.847656 9.640625 -47.125 8.609375 -48.59375 C 7.585938 -50.0625 5.640625 -50.796875 2.765625 -50.796875 L 2.765625 -52.953125 C 4.960938 -52.742188 7.085938 -52.640625 9.140625 -52.640625 C 11.460938 -52.640625 13.628906 -52.757812 15.640625 -53 C 17.660156 -53.238281 19.53125 -53.597656 21.25 -54.078125 L 21.25 -42.28125 C 22.0625 -44.257812 23.148438 -46.171875 24.515625 -48.015625 C 25.890625 -49.867188 27.535156 -51.394531 29.453125 -52.59375 C 31.367188 -53.789062 33.488281 -54.390625 35.8125 -54.390625 Z M 35.8125 -54.390625 "/></g></g></g><g fill="#ffffff" fill-opacity="1"><g transform="translate(836.331695, 112.04803)"><g><path d="M 50.59375 -52.953125 L 50.59375 -50.90625 C 49.289062 -50.695312 48.070312 -50.023438 46.9375 -48.890625 C 45.8125 -47.765625 44.773438 -45.835938 43.828125 -43.109375 L 27.609375 0.40625 C 27.054688 0.40625 26.488281 0.40625 25.90625 0.40625 C 25.332031 0.40625 24.769531 0.40625 24.21875 0.40625 L 5.546875 -45.046875 C 4.453125 -47.722656 3.375 -49.347656 2.3125 -49.921875 C 1.25 -50.503906 0.34375 -50.796875 -0.40625 -50.796875 L -0.40625 -52.953125 C 1.226562 -52.816406 2.914062 -52.695312 4.65625 -52.59375 C 6.40625 -52.488281 8.34375 -52.4375 10.46875 -52.4375 C 12.59375 -52.4375 14.832031 -52.488281 17.1875 -52.59375 C 19.550781 -52.695312 21.757812 -52.816406 23.8125 -52.953125 L 23.8125 -50.796875 C 22.164062 -50.796875 20.707031 -50.691406 19.4375 -50.484375 C 18.175781 -50.285156 17.359375 -49.6875 16.984375 -48.6875 C 16.609375 -47.695312 16.832031 -46.003906 17.65625 -43.609375 L 30.28125 -11.796875 L 29.453125 -10.984375 L 40.03125 -39 C 41.050781 -41.738281 41.457031 -43.941406 41.25 -45.609375 C 41.050781 -47.285156 40.332031 -48.550781 39.09375 -49.40625 C 37.863281 -50.269531 36.085938 -50.769531 33.765625 -50.90625 L 33.765625 -52.953125 C 34.929688 -52.890625 36.007812 -52.835938 37 -52.796875 C 37.988281 -52.765625 38.941406 -52.726562 39.859375 -52.6875 C 40.785156 -52.65625 41.765625 -52.640625 42.796875 -52.640625 C 44.296875 -52.640625 45.710938 -52.675781 47.046875 -52.75 C 48.390625 -52.820312 49.570312 -52.890625 50.59375 -52.953125 Z M 50.59375 -52.953125 "/></g></g></g><g fill="#ffffff" fill-opacity="1"><g transform="translate(885.993789, 112.04803)"><g><path d="M 28.21875 -54.390625 C 34.238281 -54.390625 38.957031 -52.578125 42.375 -48.953125 C 45.800781 -45.328125 47.515625 -39.582031 47.515625 -31.71875 L 12.109375 -31.71875 L 11.90625 -33.65625 L 36.640625 -33.65625 C 36.703125 -37.007812 36.425781 -40.101562 35.8125 -42.9375 C 35.195312 -45.78125 34.238281 -48.054688 32.9375 -49.765625 C 31.644531 -51.484375 29.9375 -52.34375 27.8125 -52.34375 C 24.875 -52.34375 22.328125 -50.785156 20.171875 -47.671875 C 18.015625 -44.554688 16.695312 -39.578125 16.21875 -32.734375 L 16.515625 -32.21875 C 16.453125 -31.257812 16.382812 -30.21875 16.3125 -29.09375 C 16.25 -27.96875 16.21875 -26.859375 16.21875 -25.765625 C 16.21875 -21.035156 16.9375 -17.0625 18.375 -13.84375 C 19.8125 -10.632812 21.691406 -8.222656 24.015625 -6.609375 C 26.335938 -5.003906 28.695312 -4.203125 31.09375 -4.203125 C 32.9375 -4.203125 34.726562 -4.492188 36.46875 -5.078125 C 38.21875 -5.660156 39.878906 -6.648438 41.453125 -8.046875 C 43.035156 -9.453125 44.441406 -11.390625 45.671875 -13.859375 L 47.71875 -13.03125 C 46.894531 -10.707031 45.628906 -8.414062 43.921875 -6.15625 C 42.210938 -3.894531 40.023438 -2.0625 37.359375 -0.65625 C 34.691406 0.738281 31.578125 1.4375 28.015625 1.4375 C 23.222656 1.4375 19.046875 0.359375 15.484375 -1.796875 C 11.929688 -3.953125 9.195312 -7.046875 7.28125 -11.078125 C 5.363281 -15.117188 4.40625 -19.910156 4.40625 -25.453125 C 4.40625 -31.535156 5.394531 -36.734375 7.375 -41.046875 C 9.363281 -45.359375 12.15625 -48.660156 15.75 -50.953125 C 19.34375 -53.242188 23.5 -54.390625 28.21875 -54.390625 Z M 28.21875 -54.390625 "/></g></g></g><g fill="#ffffff" fill-opacity="1"><g transform="translate(936.681963, 112.04803)"><g><path d="M 51.3125 -52.953125 L 51.3125 -50.90625 C 50.007812 -50.695312 48.8125 -50.023438 47.71875 -48.890625 C 46.625 -47.765625 45.566406 -45.835938 44.546875 -43.109375 L 28.53125 -0.203125 L 26.0625 2.25 L 6.0625 -45.046875 C 4.757812 -47.722656 3.507812 -49.347656 2.3125 -49.921875 C 1.113281 -50.503906 0.101562 -50.796875 -0.71875 -50.796875 L -0.71875 -52.953125 C 0.988281 -52.742188 2.800781 -52.585938 4.71875 -52.484375 C 6.632812 -52.390625 8.617188 -52.34375 10.671875 -52.34375 C 12.992188 -52.34375 15.335938 -52.410156 17.703125 -52.546875 C 20.066406 -52.679688 22.273438 -52.816406 24.328125 -52.953125 L 24.328125 -50.796875 C 22.679688 -50.796875 21.222656 -50.675781 19.953125 -50.4375 C 18.691406 -50.195312 17.875 -49.546875 17.5 -48.484375 C 17.125 -47.429688 17.445312 -45.640625 18.46875 -43.109375 L 31.203125 -11.796875 L 30.484375 -11.5 L 40.84375 -39 C 41.875 -41.738281 42.285156 -43.941406 42.078125 -45.609375 C 41.867188 -47.285156 41.148438 -48.550781 39.921875 -49.40625 C 38.691406 -50.269531 36.878906 -50.769531 34.484375 -50.90625 L 34.484375 -52.953125 C 35.648438 -52.890625 36.726562 -52.835938 37.71875 -52.796875 C 38.707031 -52.765625 39.679688 -52.726562 40.640625 -52.6875 C 41.597656 -52.65625 42.554688 -52.640625 43.515625 -52.640625 C 45.015625 -52.640625 46.429688 -52.675781 47.765625 -52.75 C 49.097656 -52.820312 50.28125 -52.890625 51.3125 -52.953125 Z M 28.53125 -0.203125 L 24.828125 9.4375 C 24.148438 11.144531 23.453125 12.582031 22.734375 13.75 C 22.015625 14.914062 21.242188 15.875 20.421875 16.625 C 19.398438 17.582031 18.132812 18.265625 16.625 18.671875 C 15.125 19.085938 13.617188 19.296875 12.109375 19.296875 C 10.671875 19.296875 9.316406 19.035156 8.046875 18.515625 C 6.785156 18.003906 5.742188 17.234375 4.921875 16.203125 C 4.097656 15.179688 3.6875 13.921875 3.6875 12.421875 C 3.6875 10.640625 4.269531 9.203125 5.4375 8.109375 C 6.601562 7.015625 8.144531 6.46875 10.0625 6.46875 C 11.769531 6.46875 13.203125 6.925781 14.359375 7.84375 C 15.523438 8.769531 16.109375 10.125 16.109375 11.90625 C 16.109375 13.132812 15.78125 14.191406 15.125 15.078125 C 14.476562 15.972656 13.644531 16.660156 12.625 17.140625 C 12.832031 17.203125 13.035156 17.234375 13.234375 17.234375 C 13.441406 17.234375 13.613281 17.234375 13.75 17.234375 C 15.664062 17.234375 17.375 16.597656 18.875 15.328125 C 20.382812 14.066406 21.65625 12.035156 22.6875 9.234375 L 26.375 -0.609375 Z M 28.53125 -0.203125 "/></g></g></g><g fill="#ffffff" fill-opacity="1"><g transform="translate(987.780629, 112.04803)"><g><path d="M 28.421875 -54.390625 C 33.003906 -54.390625 37.070312 -53.429688 40.625 -51.515625 C 44.1875 -49.597656 47.03125 -46.585938 49.15625 -42.484375 C 51.28125 -38.378906 52.34375 -33.007812 52.34375 -26.375 C 52.34375 -19.738281 51.28125 -14.382812 49.15625 -10.3125 C 47.03125 -6.238281 44.1875 -3.257812 40.625 -1.375 C 37.070312 0.5 33.003906 1.4375 28.421875 1.4375 C 23.910156 1.4375 19.84375 0.5 16.21875 -1.375 C 12.59375 -3.257812 9.734375 -6.238281 7.640625 -10.3125 C 5.554688 -14.382812 4.515625 -19.738281 4.515625 -26.375 C 4.515625 -33.007812 5.554688 -38.378906 7.640625 -42.484375 C 9.734375 -46.585938 12.59375 -49.597656 16.21875 -51.515625 C 19.84375 -53.429688 23.910156 -54.390625 28.421875 -54.390625 Z M 28.421875 -52.34375 C 24.867188 -52.34375 21.960938 -50.304688 19.703125 -46.234375 C 17.441406 -42.160156 16.3125 -35.539062 16.3125 -26.375 C 16.3125 -17.207031 17.441406 -10.617188 19.703125 -6.609375 C 21.960938 -2.609375 24.867188 -0.609375 28.421875 -0.609375 C 31.910156 -0.609375 34.800781 -2.609375 37.09375 -6.609375 C 39.382812 -10.617188 40.53125 -17.207031 40.53125 -26.375 C 40.53125 -35.539062 39.382812 -42.160156 37.09375 -46.234375 C 34.800781 -50.304688 31.910156 -52.34375 28.421875 -52.34375 Z M 28.421875 -52.34375 "/></g></g></g><g fill="#ffffff" fill-opacity="1"><g transform="translate(1044.625349, 112.04803)"><g><path d="M 35.8125 -54.390625 C 37.800781 -54.390625 39.492188 -53.976562 40.890625 -53.15625 C 42.296875 -52.332031 43.359375 -51.285156 44.078125 -50.015625 C 44.796875 -48.753906 45.15625 -47.335938 45.15625 -45.765625 C 45.15625 -43.785156 44.554688 -42.09375 43.359375 -40.6875 C 42.160156 -39.289062 40.570312 -38.59375 38.59375 -38.59375 C 36.875 -38.59375 35.414062 -39.101562 34.21875 -40.125 C 33.019531 -41.15625 32.421875 -42.554688 32.421875 -44.328125 C 32.421875 -45.835938 32.816406 -47.117188 33.609375 -48.171875 C 34.398438 -49.234375 35.304688 -50.078125 36.328125 -50.703125 C 35.640625 -51.242188 34.816406 -51.484375 33.859375 -51.421875 C 32.015625 -51.347656 30.304688 -50.742188 28.734375 -49.609375 C 27.160156 -48.484375 25.828125 -47.046875 24.734375 -45.296875 C 23.640625 -43.554688 22.785156 -41.691406 22.171875 -39.703125 C 21.554688 -37.722656 21.25 -35.878906 21.25 -34.171875 L 21.25 -10.578125 C 21.25 -7.222656 22.171875 -4.976562 24.015625 -3.84375 C 25.859375 -2.71875 28.425781 -2.15625 31.71875 -2.15625 L 31.71875 0 C 30.132812 -0.0703125 27.890625 -0.15625 24.984375 -0.25 C 22.078125 -0.351562 19.015625 -0.40625 15.796875 -0.40625 C 13.335938 -0.40625 10.875 -0.351562 8.40625 -0.25 C 5.945312 -0.15625 4.066406 -0.0703125 2.765625 0 L 2.765625 -2.15625 C 5.429688 -2.15625 7.328125 -2.664062 8.453125 -3.6875 C 9.585938 -4.71875 10.15625 -6.671875 10.15625 -9.546875 L 10.15625 -41.765625 C 10.15625 -44.847656 9.640625 -47.125 8.609375 -48.59375 C 7.585938 -50.0625 5.640625 -50.796875 2.765625 -50.796875 L 2.765625 -52.953125 C 4.960938 -52.742188 7.085938 -52.640625 9.140625 -52.640625 C 11.460938 -52.640625 13.628906 -52.757812 15.640625 -53 C 17.660156 -53.238281 19.53125 -53.597656 21.25 -54.078125 L 21.25 -42.28125 C 22.0625 -44.257812 23.148438 -46.171875 24.515625 -48.015625 C 25.890625 -49.867188 27.535156 -51.394531 29.453125 -52.59375 C 31.367188 -53.789062 33.488281 -54.390625 35.8125 -54.390625 Z M 35.8125 -54.390625 "/></g></g></g><g fill="#ffffff" fill-opacity="1"><g transform="translate(1091.004101, 112.04803)"><g><path d="M 21.859375 -54.390625 C 24.597656 -54.390625 26.972656 -53.960938 28.984375 -53.109375 C 31.003906 -52.253906 32.460938 -51.484375 33.359375 -50.796875 C 35.609375 -49.015625 37.007812 -50.175781 37.5625 -54.28125 L 39.8125 -54.28125 C 39.675781 -52.375 39.570312 -50.066406 39.5 -47.359375 C 39.4375 -44.660156 39.40625 -41.085938 39.40625 -36.640625 L 37.15625 -36.640625 C 36.738281 -39.171875 36.035156 -41.632812 35.046875 -44.03125 C 34.054688 -46.425781 32.617188 -48.410156 30.734375 -49.984375 C 28.847656 -51.554688 26.40625 -52.34375 23.40625 -52.34375 C 21.144531 -52.34375 19.257812 -51.707031 17.75 -50.4375 C 16.25 -49.175781 15.5 -47.3125 15.5 -44.84375 C 15.5 -42.789062 16.113281 -41.007812 17.34375 -39.5 C 18.570312 -38 20.160156 -36.597656 22.109375 -35.296875 C 24.066406 -34.003906 26.171875 -32.601562 28.421875 -31.09375 C 30.953125 -29.382812 33.226562 -27.691406 35.25 -26.015625 C 37.269531 -24.335938 38.878906 -22.472656 40.078125 -20.421875 C 41.273438 -18.367188 41.875 -15.972656 41.875 -13.234375 C 41.875 -10.085938 41.035156 -7.421875 39.359375 -5.234375 C 37.679688 -3.046875 35.472656 -1.382812 32.734375 -0.25 C 29.992188 0.875 26.984375 1.4375 23.703125 1.4375 C 22.066406 1.4375 20.53125 1.28125 19.09375 0.96875 C 17.65625 0.664062 16.316406 0.273438 15.078125 -0.203125 C 14.328125 -0.617188 13.59375 -1.046875 12.875 -1.484375 C 12.15625 -1.929688 11.457031 -2.359375 10.78125 -2.765625 C 10.09375 -3.242188 9.472656 -3.175781 8.921875 -2.5625 C 8.378906 -1.945312 7.972656 -0.851562 7.703125 0.71875 L 5.4375 0.71875 C 5.570312 -1.46875 5.671875 -4.132812 5.734375 -7.28125 C 5.804688 -10.425781 5.84375 -14.601562 5.84375 -19.8125 L 8.109375 -19.8125 C 8.585938 -16.039062 9.304688 -12.71875 10.265625 -9.84375 C 11.222656 -6.976562 12.640625 -4.738281 14.515625 -3.125 C 16.398438 -1.519531 18.984375 -0.71875 22.265625 -0.71875 C 23.566406 -0.71875 24.867188 -1.007812 26.171875 -1.59375 C 27.472656 -2.175781 28.550781 -3.113281 29.40625 -4.40625 C 30.257812 -5.707031 30.6875 -7.453125 30.6875 -9.640625 C 30.6875 -12.648438 29.640625 -15.128906 27.546875 -17.078125 C 25.460938 -19.035156 22.78125 -21.109375 19.5 -23.296875 C 17.175781 -24.941406 14.96875 -26.566406 12.875 -28.171875 C 10.789062 -29.773438 9.097656 -31.585938 7.796875 -33.609375 C 6.492188 -35.628906 5.84375 -38.039062 5.84375 -40.84375 C 5.84375 -43.925781 6.578125 -46.457031 8.046875 -48.4375 C 9.523438 -50.425781 11.492188 -51.914062 13.953125 -52.90625 C 16.421875 -53.894531 19.054688 -54.390625 21.859375 -54.390625 Z M 21.859375 -54.390625 "/></g></g></g></g></g></svg>